<svg xmlns="http://www.w3.org/2000/svg" width="1064.4" height="541.527" viewBox="0 0 1064.4 541.527">
  <g id="Group_815" data-name="Group 815" transform="translate(-2068.828 -122.022)">
    <g id="圖層_1" data-name="圖層 1" transform="translate(2123.621 162.877)">
      <path id="Path_6080" data-name="Path 6080" d="M3009.571,186.005v279h-69.462l-.276,24.408-59.926,60.725H2616.253V461.034l-117.483-.967v90.073H2147.915V210.2h346.879l-.287,30.312h4.237l.186,98.66h121.244l.355-128.972h140.889V186.005" transform="translate(-2139.451 -175.684)" fill="none" stroke="#474645" stroke-miterlimit="10" stroke-width="5"/>
      <line id="Line_187" data-name="Line 187" x1="278.275" transform="translate(81.044 68.673)" fill="none" stroke="#474645" stroke-miterlimit="10" stroke-width="5"/>
      <path id="Path_6081" data-name="Path 6081" d="M2586.571,495.674" transform="translate(-2227.252 -237.666)" fill="none" stroke="#474645" stroke-miterlimit="10" stroke-width="5"/>
      <path id="Path_6082" data-name="Path 6082" d="M2744.265,250.374h136.518v-34.3" transform="translate(-2258.815 -181.701)" fill="none" stroke="#474645" stroke-miterlimit="10" stroke-width="5"/>
      <line id="Line_188" data-name="Line 188" x2="239.229" transform="translate(621.967 10.175)" fill="none" stroke="#474645" stroke-miterlimit="10" stroke-width="5"/>
      <line id="Line_189" data-name="Line 189" y2="81.306" transform="translate(8.464 52.062)" fill="none" stroke="#474645" stroke-miterlimit="10" stroke-width="5"/>
      <line id="Line_190" data-name="Line 190" y2="212.253" transform="translate(8.464 159.786)" fill="none" stroke="#474645" stroke-miterlimit="10" stroke-width="5"/>
      <path id="Path_6083" data-name="Path 6083" d="M2147.915,499.239h72.58v111.18" transform="translate(-2139.451 -238.38)" fill="none" stroke="#474645" stroke-miterlimit="10" stroke-width="5"/>
      <path id="Path_6084" data-name="Path 6084" d="M2396.218,638.241" transform="translate(-2189.151 -266.202)" fill="none" stroke="#474645" stroke-miterlimit="10" stroke-width="5"/>
      <path id="Path_6085" data-name="Path 6085" d="M2396.218,258.958" transform="translate(-2189.151 -190.286)" fill="none" stroke="#474645" stroke-miterlimit="10" stroke-width="5"/>
      <path id="Path_6086" data-name="Path 6086" d="M2733.454,379.95" transform="translate(-2256.652 -214.503)" fill="none" stroke="#474645" stroke-miterlimit="10" stroke-width="5"/>
      <path id="Path_6087" data-name="Path 6087" d="M2586.571,379.95" transform="translate(-2227.252 -214.503)" fill="none" stroke="#474645" stroke-miterlimit="10" stroke-width="5"/>
      <path id="Path_6088" data-name="Path 6088" d="M2620.594,437.462V418.324h61.747v27.082" transform="translate(-2234.062 -222.184)" fill="none" stroke="#474645" stroke-miterlimit="10" stroke-width="5"/>
      <line id="Line_191" data-name="Line 191" y2="32.117" transform="translate(386.532 164.023)" fill="none" stroke="#474645" stroke-miterlimit="10" stroke-width="2"/>
      <line id="Line_192" data-name="Line 192" y2="32.117" transform="translate(391.518 164.023)" fill="none" stroke="#474645" stroke-miterlimit="10" stroke-width="2"/>
      <line id="Line_193" data-name="Line 193" y2="32.117" transform="translate(396.504 164.023)" fill="none" stroke="#474645" stroke-miterlimit="10" stroke-width="2"/>
      <line id="Line_194" data-name="Line 194" y2="32.117" transform="translate(438.307 164.023)" fill="none" stroke="#474645" stroke-miterlimit="10" stroke-width="2"/>
      <line id="Line_195" data-name="Line 195" y2="32.117" transform="translate(443.293 164.023)" fill="none" stroke="#474645" stroke-miterlimit="10" stroke-width="2"/>
      <line id="Line_196" data-name="Line 196" y2="32.117" transform="translate(448.279 164.023)" fill="none" stroke="#474645" stroke-miterlimit="10" stroke-width="2"/>
      <line id="Line_197" data-name="Line 197" x2="28.523" transform="translate(448.279 198.326)" fill="none" stroke="#474645" stroke-miterlimit="10" stroke-width="2"/>
      <line id="Line_198" data-name="Line 198" x2="28.523" transform="translate(448.279 202.724)" fill="none" stroke="#474645" stroke-miterlimit="10" stroke-width="2"/>
      <line id="Line_199" data-name="Line 199" x2="28.523" transform="translate(448.279 207.122)" fill="none" stroke="#474645" stroke-miterlimit="10" stroke-width="2"/>
      <line id="Line_200" data-name="Line 200" x2="28.523" transform="translate(448.279 211.52)" fill="none" stroke="#474645" stroke-miterlimit="10" stroke-width="2"/>
      <line id="Line_201" data-name="Line 201" x2="28.523" transform="translate(448.279 215.918)" fill="none" stroke="#474645" stroke-miterlimit="10" stroke-width="2"/>
      <line id="Line_202" data-name="Line 202" x2="28.523" transform="translate(448.279 220.316)" fill="none" stroke="#474645" stroke-miterlimit="10" stroke-width="2"/>
      <line id="Line_203" data-name="Line 203" x2="32.623" transform="translate(355.768 198.326)" fill="none" stroke="#474645" stroke-miterlimit="10" stroke-width="2"/>
      <line id="Line_204" data-name="Line 204" x2="32.623" transform="translate(355.768 202.724)" fill="none" stroke="#474645" stroke-miterlimit="10" stroke-width="2"/>
      <line id="Line_205" data-name="Line 205" x2="32.623" transform="translate(355.768 207.122)" fill="none" stroke="#474645" stroke-miterlimit="10" stroke-width="2"/>
      <line id="Line_206" data-name="Line 206" x2="32.623" transform="translate(355.768 211.52)" fill="none" stroke="#474645" stroke-miterlimit="10" stroke-width="2"/>
      <rect id="Rectangle_1720" data-name="Rectangle 1720" width="11.974" height="11.974" transform="translate(859.816 278.249)" fill="#474645"/>
      <rect id="Rectangle_1721" data-name="Rectangle 1721" width="11.974" height="11.974" transform="translate(859.816 154.1)" fill="#474645"/>
      <rect id="Rectangle_1722" data-name="Rectangle 1722" width="11.974" height="11.974" transform="translate(859.816 1.952)" fill="#474645"/>
      <rect id="Rectangle_1723" data-name="Rectangle 1723" width="11.974" height="11.974" transform="translate(753.415 0)" fill="#474645"/>
      <rect id="Rectangle_1724" data-name="Rectangle 1724" width="11.974" height="11.974" transform="translate(615.98 0)" fill="#474645"/>
      <rect id="Rectangle_1725" data-name="Rectangle 1725" width="11.974" height="11.974" transform="translate(615.98 58.694)" fill="#474645"/>
      <rect id="Rectangle_1726" data-name="Rectangle 1726" width="11.974" height="11.974" transform="translate(474.736 58.694)" fill="#474645"/>
      <rect id="Rectangle_1727" data-name="Rectangle 1727" width="11.974" height="11.974" transform="translate(349.356 58.694)" fill="#474645"/>
      <rect id="Rectangle_1728" data-name="Rectangle 1728" width="11.974" height="11.974" transform="translate(349.356 128.762)" fill="#474645"/>
      <rect id="Rectangle_1729" data-name="Rectangle 1729" width="11.974" height="11.974" transform="translate(208.27 58.694)" fill="#474645"/>
      <rect id="Rectangle_1730" data-name="Rectangle 1730" width="11.974" height="11.974" transform="translate(77.858 58.694)" fill="#474645"/>
      <rect id="Rectangle_1731" data-name="Rectangle 1731" width="11.974" height="11.974" transform="translate(0 58.694)" fill="#474645"/>
      <rect id="Rectangle_1732" data-name="Rectangle 1732" width="11.974" height="11.974" transform="translate(2.477 155.625)" fill="#474645"/>
      <rect id="Rectangle_1733" data-name="Rectangle 1733" width="11.974" height="11.974" transform="translate(474.736 155.625)" fill="#474645"/>
      <rect id="Rectangle_1734" data-name="Rectangle 1734" width="11.974" height="11.974" transform="translate(474.736 272.702)" fill="#474645"/>
      <rect id="Rectangle_1735" data-name="Rectangle 1735" width="11.974" height="11.974" transform="translate(349.781 272.702)" fill="#474645"/>
      <rect id="Rectangle_1736" data-name="Rectangle 1736" width="11.974" height="11.974" transform="translate(474.736 363.932)" fill="#474645"/>
      <rect id="Rectangle_1737" data-name="Rectangle 1737" width="11.974" height="11.974" transform="translate(349.349 364.475)" fill="#474645"/>
      <rect id="Rectangle_1738" data-name="Rectangle 1738" width="11.974" height="11.974" transform="translate(212.505 364.475)" fill="#474645"/>
      <rect id="Rectangle_1739" data-name="Rectangle 1739" width="11.974" height="11.974" transform="translate(75.057 364.475)" fill="#474645"/>
      <rect id="Rectangle_1740" data-name="Rectangle 1740" width="11.974" height="11.974" transform="translate(0.078 364.475)" fill="#474645"/>
      <rect id="Rectangle_1741" data-name="Rectangle 1741" width="11.974" height="11.974" transform="translate(0.078 254.872)" fill="#474645"/>
      <rect id="Rectangle_1742" data-name="Rectangle 1742" width="11.974" height="11.974" transform="translate(74.788 254.872)" fill="#474645"/>
      <rect id="Rectangle_1743" data-name="Rectangle 1743" width="11.974" height="11.974" transform="translate(74.788 127.382)" fill="#474645"/>
      <rect id="Rectangle_1744" data-name="Rectangle 1744" width="11.974" height="11.974" transform="translate(711.126 363.932)" fill="#474645"/>
      <line id="Line_207" data-name="Line 207" x2="50.157" transform="translate(646.81 13.926)" fill="none" stroke="#474645" stroke-miterlimit="10" stroke-width="2"/>
      <line id="Line_208" data-name="Line 208" x2="35.922" transform="translate(645.129 59.057)" fill="none" stroke="#474645" stroke-miterlimit="10" stroke-width="2"/>
      <line id="Line_209" data-name="Line 209" x2="51.838" transform="translate(645.129 36.492)" fill="none" stroke="#474645" stroke-miterlimit="10" stroke-width="2"/>
      <line id="Line_210" data-name="Line 210" y2="22.566" transform="translate(692.406 13.926)" fill="none" stroke="#474645" stroke-miterlimit="10" stroke-width="2"/>
      <line id="Line_211" data-name="Line 211" y2="22.566" transform="translate(687.274 13.926)" fill="none" stroke="#474645" stroke-miterlimit="10" stroke-width="2"/>
      <line id="Line_212" data-name="Line 212" y2="22.566" transform="translate(682.142 13.926)" fill="none" stroke="#474645" stroke-miterlimit="10" stroke-width="2"/>
      <line id="Line_213" data-name="Line 213" y2="22.566" transform="translate(677.011 13.926)" fill="none" stroke="#474645" stroke-miterlimit="10" stroke-width="2"/>
      <line id="Line_214" data-name="Line 214" y2="22.566" transform="translate(671.879 13.926)" fill="none" stroke="#474645" stroke-miterlimit="10" stroke-width="2"/>
      <line id="Line_215" data-name="Line 215" y2="22.566" transform="translate(664.884 13.926)" fill="none" stroke="#474645" stroke-miterlimit="10" stroke-width="2"/>
      <line id="Line_216" data-name="Line 216" y2="22.566" transform="translate(659.752 13.926)" fill="none" stroke="#474645" stroke-miterlimit="10" stroke-width="2"/>
      <line id="Line_217" data-name="Line 217" y2="22.566" transform="translate(654.62 13.926)" fill="none" stroke="#474645" stroke-miterlimit="10" stroke-width="2"/>
      <line id="Line_218" data-name="Line 218" y2="22.566" transform="translate(649.489 13.926)" fill="none" stroke="#474645" stroke-miterlimit="10" stroke-width="2"/>
      <line id="Line_219" data-name="Line 219" y2="22.566" transform="translate(669.028 36.492)" fill="none" stroke="#474645" stroke-miterlimit="10" stroke-width="2"/>
      <line id="Line_220" data-name="Line 220" y2="22.566" transform="translate(663.896 36.492)" fill="none" stroke="#474645" stroke-miterlimit="10" stroke-width="2"/>
      <line id="Line_221" data-name="Line 221" y2="22.566" transform="translate(658.765 36.492)" fill="none" stroke="#474645" stroke-miterlimit="10" stroke-width="2"/>
      <line id="Line_222" data-name="Line 222" y2="22.566" transform="translate(653.633 36.492)" fill="none" stroke="#474645" stroke-miterlimit="10" stroke-width="2"/>
      <line id="Line_223" data-name="Line 223" y2="22.566" transform="translate(648.501 36.492)" fill="none" stroke="#474645" stroke-miterlimit="10" stroke-width="2"/>
      <line id="Line_224" data-name="Line 224" y2="62.34" transform="translate(59.027 76.742)" fill="none" stroke="#474645" stroke-miterlimit="10" stroke-width="2"/>
      <line id="Line_225" data-name="Line 225" y2="51.002" transform="translate(35.84 85.337)" fill="none" stroke="#474645" stroke-miterlimit="10" stroke-width="2"/>
      <line id="Line_226" data-name="Line 226" y2="51.002" transform="translate(11.892 85.337)" fill="none" stroke="#474645" stroke-miterlimit="10" stroke-width="2"/>
      <line id="Line_227" data-name="Line 227" x2="23.948" transform="translate(11.974 87.998)" fill="none" stroke="#474645" stroke-miterlimit="10" stroke-width="2"/>
      <line id="Line_228" data-name="Line 228" x2="23.948" transform="translate(11.974 92.752)" fill="none" stroke="#474645" stroke-miterlimit="10" stroke-width="2"/>
      <line id="Line_229" data-name="Line 229" x2="23.948" transform="translate(11.974 97.506)" fill="none" stroke="#474645" stroke-miterlimit="10" stroke-width="2"/>
      <line id="Line_230" data-name="Line 230" x2="23.948" transform="translate(11.974 102.26)" fill="none" stroke="#474645" stroke-miterlimit="10" stroke-width="2"/>
      <line id="Line_231" data-name="Line 231" x2="23.948" transform="translate(11.974 107.014)" fill="none" stroke="#474645" stroke-miterlimit="10" stroke-width="2"/>
      <line id="Line_232" data-name="Line 232" x2="23.948" transform="translate(11.974 111.768)" fill="none" stroke="#474645" stroke-miterlimit="10" stroke-width="2"/>
      <line id="Line_233" data-name="Line 233" x2="23.948" transform="translate(11.974 116.522)" fill="none" stroke="#474645" stroke-miterlimit="10" stroke-width="2"/>
      <line id="Line_234" data-name="Line 234" x2="23.948" transform="translate(11.974 121.276)" fill="none" stroke="#474645" stroke-miterlimit="10" stroke-width="2"/>
      <line id="Line_235" data-name="Line 235" x2="23.948" transform="translate(35.84 92.752)" fill="none" stroke="#474645" stroke-miterlimit="10" stroke-width="2"/>
      <line id="Line_236" data-name="Line 236" x2="23.948" transform="translate(35.84 97.506)" fill="none" stroke="#474645" stroke-miterlimit="10" stroke-width="2"/>
      <line id="Line_237" data-name="Line 237" x2="23.948" transform="translate(35.84 102.26)" fill="none" stroke="#474645" stroke-miterlimit="10" stroke-width="2"/>
      <line id="Line_238" data-name="Line 238" x2="23.948" transform="translate(35.84 107.014)" fill="none" stroke="#474645" stroke-miterlimit="10" stroke-width="2"/>
      <line id="Line_239" data-name="Line 239" x2="23.948" transform="translate(35.84 111.768)" fill="none" stroke="#474645" stroke-miterlimit="10" stroke-width="2"/>
      <line id="Line_240" data-name="Line 240" x2="23.948" transform="translate(35.84 116.522)" fill="none" stroke="#474645" stroke-miterlimit="10" stroke-width="2"/>
      <line id="Line_241" data-name="Line 241" x2="23.948" transform="translate(35.84 121.276)" fill="none" stroke="#474645" stroke-miterlimit="10" stroke-width="2"/>
      <line id="Line_242" data-name="Line 242" x2="23.948" transform="translate(35.84 125.693)" fill="none" stroke="#474645" stroke-miterlimit="10" stroke-width="2"/>
      <line id="Line_243" data-name="Line 243" x2="23.948" transform="translate(35.84 130.11)" fill="none" stroke="#474645" stroke-miterlimit="10" stroke-width="2"/>
      <line id="Line_244" data-name="Line 244" x2="23.948" transform="translate(35.84 134.526)" fill="none" stroke="#474645" stroke-miterlimit="10" stroke-width="2"/>
      <line id="Line_245" data-name="Line 245" x2="131.32" transform="translate(21.87 57.398)" fill="none" stroke="#474645" stroke-miterlimit="10" stroke-width="2"/>
      <line id="Line_246" data-name="Line 246" x2="131.32" transform="translate(21.87 38.511)" fill="none" stroke="#474645" stroke-miterlimit="10" stroke-width="2"/>
      <line id="Line_247" data-name="Line 247" y2="19.461" transform="translate(24.436 37.938)" fill="none" stroke="#474645" stroke-miterlimit="10" stroke-width="2"/>
      <line id="Line_248" data-name="Line 248" y2="19.461" transform="translate(28.998 37.938)" fill="none" stroke="#474645" stroke-miterlimit="10" stroke-width="2"/>
      <line id="Line_249" data-name="Line 249" y2="19.461" transform="translate(33.559 37.938)" fill="none" stroke="#474645" stroke-miterlimit="10" stroke-width="2"/>
      <line id="Line_250" data-name="Line 250" y2="19.461" transform="translate(38.12 37.938)" fill="none" stroke="#474645" stroke-miterlimit="10" stroke-width="2"/>
      <line id="Line_251" data-name="Line 251" y2="19.461" transform="translate(42.682 37.938)" fill="none" stroke="#474645" stroke-miterlimit="10" stroke-width="2"/>
      <line id="Line_252" data-name="Line 252" y2="19.461" transform="translate(47.243 37.938)" fill="none" stroke="#474645" stroke-miterlimit="10" stroke-width="2"/>
      <line id="Line_253" data-name="Line 253" y2="19.461" transform="translate(86.761 37.938)" fill="none" stroke="#474645" stroke-miterlimit="10" stroke-width="2"/>
      <line id="Line_254" data-name="Line 254" y2="19.461" transform="translate(91.323 37.938)" fill="none" stroke="#474645" stroke-miterlimit="10" stroke-width="2"/>
      <line id="Line_255" data-name="Line 255" y2="19.461" transform="translate(95.884 37.938)" fill="none" stroke="#474645" stroke-miterlimit="10" stroke-width="2"/>
      <line id="Line_256" data-name="Line 256" y2="19.461" transform="translate(100.446 37.938)" fill="none" stroke="#474645" stroke-miterlimit="10" stroke-width="2"/>
      <line id="Line_257" data-name="Line 257" y2="19.461" transform="translate(105.007 37.938)" fill="none" stroke="#474645" stroke-miterlimit="10" stroke-width="2"/>
      <line id="Line_258" data-name="Line 258" y2="19.461" transform="translate(109.569 37.938)" fill="none" stroke="#474645" stroke-miterlimit="10" stroke-width="2"/>
      <line id="Line_259" data-name="Line 259" y2="19.461" transform="translate(114.4 37.938)" fill="none" stroke="#474645" stroke-miterlimit="10" stroke-width="2"/>
      <line id="Line_260" data-name="Line 260" y2="19.461" transform="translate(118.961 37.938)" fill="none" stroke="#474645" stroke-miterlimit="10" stroke-width="2"/>
      <line id="Line_261" data-name="Line 261" y2="19.461" transform="translate(123.522 37.938)" fill="none" stroke="#474645" stroke-miterlimit="10" stroke-width="2"/>
      <line id="Line_262" data-name="Line 262" y2="19.461" transform="translate(128.084 37.938)" fill="none" stroke="#474645" stroke-miterlimit="10" stroke-width="2"/>
      <line id="Line_263" data-name="Line 263" y2="19.461" transform="translate(132.645 37.938)" fill="none" stroke="#474645" stroke-miterlimit="10" stroke-width="2"/>
      <line id="Line_264" data-name="Line 264" y2="19.461" transform="translate(137.207 37.938)" fill="none" stroke="#474645" stroke-miterlimit="10" stroke-width="2"/>
      <line id="Line_265" data-name="Line 265" y2="19.461" transform="translate(142.53 37.938)" fill="none" stroke="#474645" stroke-miterlimit="10" stroke-width="2"/>
      <line id="Line_266" data-name="Line 266" y2="19.461" transform="translate(147.091 37.938)" fill="none" stroke="#474645" stroke-miterlimit="10" stroke-width="2"/>
      <line id="Line_267" data-name="Line 267" y2="19.461" transform="translate(151.652 37.938)" fill="none" stroke="#474645" stroke-miterlimit="10" stroke-width="2"/>
      <line id="Line_268" data-name="Line 268" x2="51.221" transform="translate(308.098 284.236)" fill="none" stroke="#474645" stroke-miterlimit="10" stroke-width="5"/>
      <path id="Path_6089" data-name="Path 6089" d="M2522.532,529.675V566.4h51.221" transform="translate(-2214.434 -244.472)" fill="none" stroke="#474645" stroke-miterlimit="10" stroke-width="5"/>
      <path id="Path_6090" data-name="Path 6090" d="M2522.532,575.593v11.635h47.238V575.593" transform="translate(-2214.434 -253.663)" fill="none" stroke="#474645" stroke-miterlimit="10" stroke-width="5"/>
      <path id="Path_6091" data-name="Path 6091" d="M2550.533,444.677h-28v67.985" transform="translate(-2214.434 -227.459)" fill="none" stroke="#474645" stroke-miterlimit="10" stroke-width="5"/>
      <g id="Group_802" data-name="Group 802" transform="translate(357.732 257.422)">
        <path id="Path_6092" data-name="Path 6092" d="M2598.932,509.288a14.346,14.346,0,0,0-14.346-14.346v14.346" transform="translate(-2584.586 -494.942)" fill="none" stroke="#474645" stroke-miterlimit="10" stroke-width="1"/>
        <line id="Line_269" data-name="Line 269" x2="14.346" transform="translate(0 14.346)" fill="none" stroke="#474645" stroke-linecap="round" stroke-miterlimit="10" stroke-width="2"/>
      </g>
      <g id="Group_803" data-name="Group 803" transform="translate(336.633 199.949)">
        <path id="Path_6093" data-name="Path 6093" d="M2558.207,437.432a14.346,14.346,0,0,1,14.346-14.346v14.346" transform="translate(-2558.207 -423.086)" fill="none" stroke="#474645" stroke-miterlimit="10" stroke-width="1"/>
        <line id="Line_270" data-name="Line 270" x1="14.346" transform="translate(0 14.346)" fill="none" stroke="#474645" stroke-linecap="round" stroke-miterlimit="10" stroke-width="2"/>
      </g>
      <g id="Group_804" data-name="Group 804" transform="translate(88.075 144.289)">
        <path id="Path_6094" data-name="Path 6094" d="M2247.449,370.429a16.932,16.932,0,0,1,16.932-16.932v16.932" transform="translate(-2247.449 -353.497)" fill="none" stroke="#474645" stroke-miterlimit="10" stroke-width="1"/>
        <line id="Line_271" data-name="Line 271" x1="16.932" transform="translate(0 16.932)" fill="none" stroke="#474645" stroke-linecap="round" stroke-miterlimit="10" stroke-width="2"/>
      </g>
      <g id="Group_805" data-name="Group 805" transform="translate(42.096 139.082)">
        <path id="Path_6095" data-name="Path 6095" d="M2189.963,363.92a16.932,16.932,0,0,1,16.932-16.932V363.92" transform="translate(-2189.963 -346.988)" fill="none" stroke="#474645" stroke-miterlimit="10" stroke-width="1"/>
        <line id="Line_272" data-name="Line 272" x1="16.932" transform="translate(0 16.932)" fill="none" stroke="#474645" stroke-linecap="round" stroke-miterlimit="10" stroke-width="2"/>
      </g>
      <g id="Group_806" data-name="Group 806" transform="translate(461.223 257.422)">
        <path id="Path_6096" data-name="Path 6096" d="M2713.976,509.288a14.346,14.346,0,0,1,14.346-14.346v14.346" transform="translate(-2713.976 -494.942)" fill="none" stroke="#474645" stroke-miterlimit="10" stroke-width="1"/>
        <line id="Line_273" data-name="Line 273" x1="14.346" transform="translate(0 14.346)" fill="none" stroke="#474645" stroke-linecap="round" stroke-miterlimit="10" stroke-width="2"/>
      </g>
      <g id="Group_807" data-name="Group 807" transform="translate(330.086 148.621)">
        <path id="Path_6097" data-name="Path 6097" d="M2568.654,364.47a14.207,14.207,0,0,1-18.632,7.521l5.556-13.077" transform="translate(-2550.022 -358.914)" fill="none" stroke="#474645" stroke-miterlimit="10" stroke-width="1"/>
        <line id="Line_274" data-name="Line 274" x2="13.076" y2="5.556" transform="translate(5.556)" fill="none" stroke="#474645" stroke-linecap="round" stroke-miterlimit="10" stroke-width="2"/>
      </g>
      <g id="Group_808" data-name="Group 808" transform="translate(698.281 64.407)">
        <path id="Path_6098" data-name="Path 6098" d="M3010.358,253.625a14.469,14.469,0,0,0,14.468,14.468V253.625" transform="translate(-3010.358 -253.625)" fill="none" stroke="#474645" stroke-miterlimit="10" stroke-width="1"/>
        <line id="Line_275" data-name="Line 275" x1="14.469" fill="none" stroke="#474645" stroke-linecap="round" stroke-miterlimit="10" stroke-width="2"/>
      </g>
      <g id="Group_809" data-name="Group 809" transform="translate(737.66 64.407)">
        <path id="Path_6099" data-name="Path 6099" d="M3074.059,253.625a14.469,14.469,0,0,1-14.469,14.468V253.625" transform="translate(-3059.591 -253.625)" fill="none" stroke="#474645" stroke-miterlimit="10" stroke-width="1"/>
        <line id="Line_276" data-name="Line 276" x2="14.469" fill="none" stroke="#474645" stroke-linecap="round" stroke-miterlimit="10" stroke-width="2"/>
      </g>
      <g id="Group_810" data-name="Group 810" transform="translate(718.129 44.915)">
        <path id="Path_6100" data-name="Path 6100" d="M3035.172,246.082A16.827,16.827,0,0,1,3052,229.256v16.826" transform="translate(-3035.172 -229.256)" fill="none" stroke="#474645" stroke-miterlimit="10" stroke-width="1"/>
        <line id="Line_277" data-name="Line 277" x1="16.826" transform="translate(0 16.826)" fill="none" stroke="#474645" stroke-linecap="round" stroke-miterlimit="10" stroke-width="2"/>
      </g>
      <line id="Line_278" data-name="Line 278" y2="32.89" transform="translate(546.154 35.782)" fill="none" stroke="#474645" stroke-miterlimit="10" stroke-width="2"/>
      <path id="Path_6101" data-name="Path 6101" d="M2920.675,237.037h88.758V185.822" transform="translate(-2294.125 -175.647)" fill="none" stroke="#474645" stroke-miterlimit="10" stroke-width="2"/>
      <line id="Line_279" data-name="Line 279" x2="72.58" transform="translate(8.464 64.681)" fill="none" stroke="#474645" stroke-miterlimit="10" stroke-width="2"/>
      <path id="Path_6102" data-name="Path 6102" d="M2202.257,253.967v95.105H2155.4" transform="translate(-2140.949 -189.287)" fill="none" stroke="#474645" stroke-miterlimit="10" stroke-width="2"/>
      <path id="Path_6103" data-name="Path 6103" d="M3219.8,528.466" transform="translate(-2353.998 -244.23)" fill="none" stroke="#474645" stroke-miterlimit="10" stroke-width="2"/>
      <path id="Path_6104" data-name="Path 6104" d="M3219.8,175.542" transform="translate(-2353.998 -173.589)" fill="none" stroke="#474645" stroke-miterlimit="10" stroke-width="2"/>
      <path id="Path_6105" data-name="Path 6105" d="M2573.9,346.561h-12.114l-3.268,8.268" transform="translate(-2221.637 -207.82)" fill="none" stroke="#474645" stroke-miterlimit="10" stroke-width="5"/>
      <line id="Line_280" data-name="Line 280" x1="22.893" y2="53.878" transform="translate(307.925 163.34)" fill="none" stroke="#474645" stroke-miterlimit="10" stroke-width="5"/>
      <path id="Path_6106" data-name="Path 6106" d="M2742.6,369.14h30.98l-.1,126.926H2745.1" transform="translate(-2258.482 -212.34)" fill="none" stroke="#474645" stroke-miterlimit="10" stroke-width="2"/>
      <path id="Path_6107" data-name="Path 6107" d="M2781.334,413.834H3003.9v-133.8" transform="translate(-2266.235 -194.504)" fill="none" stroke="#474645" stroke-miterlimit="10" stroke-width="2"/>
      <path id="Path_6108" data-name="Path 6108" d="M3028.7,271.714v6.652h24.708v-6.652" transform="translate(-2315.747 -192.839)" fill="none" stroke="#474645" stroke-miterlimit="10" stroke-width="2"/>
      <rect id="Rectangle_1745" data-name="Rectangle 1745" width="11.467" height="50.475" transform="translate(736.903 11.974)" fill="none" stroke="#474645" stroke-miterlimit="10" stroke-width="2"/>
      <path id="Path_6109" data-name="Path 6109" d="M2580.463,431.194V377.316h5.042" transform="translate(-2226.029 -213.976)" fill="none" stroke="#474645" stroke-miterlimit="10" stroke-width="5"/>
      <line id="Line_281" data-name="Line 281" y2="53.884" transform="translate(478.114 165.447)" fill="none" stroke="#474645" stroke-miterlimit="10" stroke-width="5"/>
      <line id="Line_282" data-name="Line 282" y2="40.671" transform="translate(354.434 218.586)" fill="none" stroke="#474645" stroke-miterlimit="10" stroke-width="3"/>
      <line id="Line_283" data-name="Line 283" y2="40.671" transform="translate(478.114 218.586)" fill="none" stroke="#474645" stroke-miterlimit="10" stroke-width="3"/>
      <line id="Line_284" data-name="Line 284" y2="73.372" transform="translate(105.007 69.562)" fill="none" stroke="#474645" stroke-miterlimit="10" stroke-width="2"/>
      <path id="Path_6110" data-name="Path 6110" d="M2236.749,468.848V377.316h25.49" transform="translate(-2157.232 -213.976)" fill="none" stroke="#474645" stroke-miterlimit="10" stroke-width="2"/>
      <rect id="Rectangle_1746" data-name="Rectangle 1746" width="18.987" height="9.539" transform="translate(79.517 163.34)" fill="none" stroke="#474645" stroke-miterlimit="10" stroke-width="2"/>
    </g>
    <g id="圖層_2" data-name="圖層 2" transform="translate(2068.828 122.022)">
      <path id="Path_6111" data-name="Path 6111" d="M2969.4,278.724V254.032h-78.456v8.91H2746.777v79.408H2778.8v62.622h215.17V278.724Z" transform="translate(-2204.525 -148.445)" fill="#0099db" opacity="0.4"/>
      <path id="Path_6112" data-name="Path 6112" d="M3115.462,193.743V191.79H3010.7v51.245h-11.545V400.172H2777.3v64.321h-38.009v73.14h8.91v9.179h218.616v-8.751h17.775v8.751H2998l56.76-58.12V461.13h60.7v-8.91h8.91V193.743Z" transform="translate(-2203.027 -135.986)" fill="#0099db" opacity="0.4"/>
      <text id="樂丘廚房" transform="translate(677.507 199.598)" fill="#1a1311" font-size="20" font-family="PingFangTC-Regular, PingFang TC"><tspan x="-40" y="0">樂丘廚房</tspan></text>
      <text id="丸龜製麵" transform="translate(678.106 332.596)" fill="#1a1311" font-size="20" font-family="PingFangTC-Regular, PingFang TC"><tspan x="-40" y="0">丸龜製麵</tspan></text>
      <path id="Path_6113" data-name="Path 6113" d="M2462.885,405.208,2496,327.265l.842-1.835h8.422v-8.01h7.873V265.172H2266.761v93.318h-5.7v9.792h-20.068v75.393h6.526V461.1h-3.8v92.176h3.8v7.8h120.893v-7.949h17.82v7.949h119.228v-8.066h7.677V529.929h-51.1V407.163Z" transform="translate(-2103.288 -150.674)" fill="#0099db" opacity="0.4"/>
      <text id="泰丘鍋物" transform="translate(268.608 273.944)" fill="#1a1311" font-size="20" font-family="PingFangTC-Regular, PingFang TC"><tspan x="-40" y="0">泰丘鍋物</tspan></text>
      <g id="Group_814" data-name="Group 814">
        <path id="Path_6114" data-name="Path 6114" d="M3114.412,713.23H2088.547l-19.719-48.452h1064.4Z" transform="translate(-2068.828 -230.659)" fill="#d4d5d5"/>
        <path id="Path_6115" data-name="Path 6115" d="M3310.669,142.784V640.457l-42.511,23.092V122.022Z" transform="translate(-2308.884 -122.022)" fill="#d4d5d5"/>
        <text id="育才街" transform="translate(468.556 468.116)" fill="#1a1311" font-size="17" font-family="PingFangTC-Regular, PingFang TC" letter-spacing="0.48em"><tspan x="-33.66" y="0">育才街</tspan></text>
        <g id="Group_813" data-name="Group 813" transform="translate(971.316 206.715)">
          <g id="Group_812" data-name="Group 812">
            <g id="Group_811" data-name="Group 811">
              <path id="Path_6116" data-name="Path 6116" d="M3301.316,380.467v1.555h-17.432v-1.555Z" transform="translate(-3283.347 -380.467)" fill="#1a1311"/>
              <path id="Path_6117" data-name="Path 6117" d="M3300.471,409.636v8.985h-1.459v-1.094h-5.51v6.22h-1.478v-6.22h-5.49v1.19h-1.4v-9.081h6.892v-3.418h1.478v3.418Zm-8.447,6.489v-5.088h-5.49v5.088Zm6.988,0v-5.088h-5.51v5.088Z" transform="translate(-3283.597 -385.621)" fill="#1a1311"/>
              <path id="Path_6118" data-name="Path 6118" d="M3288.742,446.024a20.464,20.464,0,0,1-1.67,2.841V459.29h-1.326v-8.7a20.406,20.406,0,0,1-1.689,1.728,9.788,9.788,0,0,0-.844-1.267,16.557,16.557,0,0,0,4.262-5.452Zm-.538-3.782a16.882,16.882,0,0,1-3.917,4.415,8.337,8.337,0,0,0-.806-1.037,13.4,13.4,0,0,0,3.418-3.839Zm7.775,14.648c-2.8.384-5.72.729-7.794,1l-.172-1.325c.922-.1,2.054-.211,3.321-.365v-2.975h-2.8v-1.249h2.8v-2.361h1.363v2.361h2.783v1.249H3292.7v2.822l3.263-.4Zm-4.626-11.48h-2.535v-1.229h2.535v-2.42h1.344v2.42h2.573v1.229H3292.7v2.553h2.918v1.267h-7.2v-1.267h2.938Zm9.829,3.878H3299.4v8.254c0,.806-.154,1.248-.71,1.46a8.293,8.293,0,0,1-2.879.269,5.161,5.161,0,0,0-.423-1.421c1.057.038,1.978.038,2.247.019.287-.019.365-.077.365-.346v-8.235h-2.054v-1.306h5.24Zm-.25-5.126h-4.819v-1.286h4.819Z" transform="translate(-3283.213 -392.736)" fill="#1a1311"/>
            </g>
          </g>
        </g>
      </g>
    </g>
  </g>
</svg>
