<svg xmlns="http://www.w3.org/2000/svg" viewBox="0 0 1064.71 541.68"><defs><style>.cls-1,.cls-2,.cls-4,.cls-5{fill:none;stroke:#474645;stroke-miterlimit:10;}.cls-1{stroke-width:5px;}.cls-2,.cls-5{stroke-width:2px;}.cls-3{fill:#474645;}.cls-5{stroke-linecap:round;}.cls-6{fill:#0099db;opacity:0.4;}.cls-6,.cls-7{isolation:isolate;}.cls-8{fill:#1a1311;}.cls-9{fill:#d4d5d5;}</style></defs><g id="圖層_2" data-name="圖層 2"><g id="圖層_1-2" data-name="圖層 1"><g id="圖層_1-3" data-name="圖層 1"><path id="Path_6018" data-name="Path 6018" class="cls-1" d="M452.27,344.32v-21h-38V413H27.05V30.94H937.1V330.13H811.63l-34.06,36.33v48.82H531.75V326.15H495.41v17.6"/><path id="Path_6019" data-name="Path 6019" class="cls-1" d="M414.23,299V109.56H135.88"/><path id="Path_6020" data-name="Path 6020" class="cls-1" d="M531.75,326.15V109.56H677V75.25"/><line id="Line_109" data-name="Line 109" class="cls-1" x1="676.96" y1="51.04" x2="861.53" y2="51.04"/><line id="Line_110" data-name="Line 110" class="cls-1" x1="63.28" y1="92.94" x2="63.28" y2="174.27"/><line id="Line_111" data-name="Line 111" class="cls-1" x1="63.28" y1="200.7" x2="63.28" y2="413.01"/><path id="Path_6021" data-name="Path 6021" class="cls-1" d="M63.27,297.38h72.6V413"/><line id="Line_112" data-name="Line 112" class="cls-1" x1="261.93" y1="109.56" x2="261.93" y2="413.01"/><line id="Line_113" data-name="Line 113" class="cls-1" x1="414.23" y1="206.36" x2="531.75" y2="206.36"/><path id="Path_6022" data-name="Path 6022" class="cls-1" d="M441.45,256.21V237.06h61.77v27.09"/><line id="Line_114" data-name="Line 114" class="cls-2" x1="441.45" y1="206.99" x2="441.45" y2="237.06"/><line id="Line_115" data-name="Line 115" class="cls-2" x1="446.44" y1="206.99" x2="446.44" y2="237.06"/><line id="Line_116" data-name="Line 116" class="cls-2" x1="451.43" y1="206.99" x2="451.43" y2="237.06"/><line id="Line_117" data-name="Line 117" class="cls-2" x1="493.24" y1="206.99" x2="493.24" y2="237.06"/><line id="Line_118" data-name="Line 118" class="cls-2" x1="498.23" y1="206.99" x2="498.23" y2="237.06"/><line id="Line_119" data-name="Line 119" class="cls-2" x1="503.22" y1="206.99" x2="503.22" y2="237.06"/><line id="Line_120" data-name="Line 120" class="cls-2" x1="503.22" y1="239.25" x2="531.75" y2="239.25"/><line id="Line_121" data-name="Line 121" class="cls-2" x1="503.22" y1="243.65" x2="531.75" y2="243.65"/><line id="Line_122" data-name="Line 122" class="cls-2" x1="503.22" y1="248.05" x2="531.75" y2="248.05"/><line id="Line_123" data-name="Line 123" class="cls-2" x1="503.22" y1="252.45" x2="531.75" y2="252.45"/><line id="Line_124" data-name="Line 124" class="cls-2" x1="503.22" y1="256.85" x2="531.75" y2="256.85"/><line id="Line_125" data-name="Line 125" class="cls-2" x1="503.22" y1="261.25" x2="531.75" y2="261.25"/><line id="Line_126" data-name="Line 126" class="cls-2" x1="414.78" y1="239.25" x2="443.31" y2="239.25"/><line id="Line_127" data-name="Line 127" class="cls-2" x1="414.78" y1="243.65" x2="443.31" y2="243.65"/><line id="Line_128" data-name="Line 128" class="cls-2" x1="414.78" y1="248.05" x2="443.31" y2="248.05"/><line id="Line_129" data-name="Line 129" class="cls-2" x1="414.78" y1="252.45" x2="443.31" y2="252.45"/><rect id="Rectangle_1676" data-name="Rectangle 1676" class="cls-3" x="808.44" y="313.21" width="11.98" height="11.98"/><rect id="Rectangle_1677" data-name="Rectangle 1677" class="cls-3" x="909.68" y="313.21" width="11.98" height="11.98"/><rect id="Rectangle_1678" data-name="Rectangle 1678" class="cls-3" x="909.68" y="195.01" width="11.98" height="11.98"/><rect id="Rectangle_1679" data-name="Rectangle 1679" class="cls-3" x="909.68" y="42.82" width="11.98" height="11.98"/><rect id="Rectangle_1680" data-name="Rectangle 1680" class="cls-3" x="808.44" y="40.87" width="11.98" height="11.98"/><rect id="Rectangle_1681" data-name="Rectangle 1681" class="cls-3" x="670.97" y="40.87" width="11.98" height="11.98"/><rect id="Rectangle_1682" data-name="Rectangle 1682" class="cls-3" x="670.97" y="99.58" width="11.98" height="11.98"/><rect id="Rectangle_1683" data-name="Rectangle 1683" class="cls-3" x="529.68" y="99.58" width="11.98" height="11.98"/><rect id="Rectangle_1684" data-name="Rectangle 1684" class="cls-3" x="404.26" y="99.58" width="11.98" height="11.98"/><rect id="Rectangle_1685" data-name="Rectangle 1685" class="cls-3" x="263.14" y="99.58" width="11.98" height="11.98"/><rect id="Rectangle_1686" data-name="Rectangle 1686" class="cls-3" x="132.69" y="99.58" width="11.98" height="11.98"/><rect id="Rectangle_1687" data-name="Rectangle 1687" class="cls-3" x="57.29" y="196.54" width="11.98" height="11.98"/><rect id="Rectangle_1688" data-name="Rectangle 1688" class="cls-3" x="529.68" y="196.54" width="11.98" height="11.98"/><rect id="Rectangle_1689" data-name="Rectangle 1689" class="cls-3" x="529.68" y="313.65" width="11.98" height="11.98"/><rect id="Rectangle_1690" data-name="Rectangle 1690" class="cls-3" x="529.68" y="404.9" width="11.98" height="11.98"/><rect id="Rectangle_1691" data-name="Rectangle 1691" class="cls-3" x="766.14" y="404.9" width="11.98" height="11.98"/><line id="Line_130" data-name="Line 130" class="cls-2" x1="716.04" y1="54.8" x2="751.98" y2="54.8"/><line id="Line_131" data-name="Line 131" class="cls-2" x1="700.12" y1="99.94" x2="736.06" y2="99.94"/><line id="Line_132" data-name="Line 132" class="cls-2" x1="700.12" y1="77.37" x2="751.98" y2="77.37"/><line id="Line_133" data-name="Line 133" class="cls-2" x1="747.41" y1="54.8" x2="747.41" y2="77.37"/><line id="Line_134" data-name="Line 134" class="cls-2" x1="742.28" y1="54.8" x2="742.28" y2="77.37"/><line id="Line_135" data-name="Line 135" class="cls-2" x1="737.15" y1="54.8" x2="737.15" y2="77.37"/><line id="Line_136" data-name="Line 136" class="cls-2" x1="732.01" y1="54.8" x2="732.01" y2="77.37"/><line id="Line_137" data-name="Line 137" class="cls-2" x1="726.88" y1="54.8" x2="726.88" y2="77.37"/><line id="Line_138" data-name="Line 138" class="cls-2" x1="724.03" y1="77.37" x2="724.03" y2="99.94"/><line id="Line_139" data-name="Line 139" class="cls-2" x1="718.9" y1="77.37" x2="718.9" y2="99.94"/><line id="Line_140" data-name="Line 140" class="cls-2" x1="713.76" y1="77.37" x2="713.76" y2="99.94"/><line id="Line_141" data-name="Line 141" class="cls-2" x1="708.63" y1="77.37" x2="708.63" y2="99.94"/><line id="Line_142" data-name="Line 142" class="cls-2" x1="703.5" y1="77.37" x2="703.5" y2="99.94"/><line id="Line_143" data-name="Line 143" class="cls-2" x1="113.85" y1="126.23" x2="113.85" y2="188.59"/><line id="Line_144" data-name="Line 144" class="cls-2" x1="90.66" y1="126.23" x2="90.66" y2="177.24"/><line id="Line_145" data-name="Line 145" class="cls-2" x1="66.7" y1="126.23" x2="66.7" y2="177.24"/><line id="Line_146" data-name="Line 146" class="cls-2" x1="66.79" y1="128.89" x2="90.74" y2="128.89"/><line id="Line_147" data-name="Line 147" class="cls-2" x1="66.79" y1="133.65" x2="90.74" y2="133.65"/><line id="Line_148" data-name="Line 148" class="cls-2" x1="66.79" y1="138.4" x2="90.74" y2="138.4"/><line id="Line_149" data-name="Line 149" class="cls-2" x1="66.79" y1="143.16" x2="90.74" y2="143.16"/><line id="Line_150" data-name="Line 150" class="cls-2" x1="66.79" y1="147.91" x2="90.74" y2="147.91"/><line id="Line_151" data-name="Line 151" class="cls-2" x1="66.79" y1="152.67" x2="90.74" y2="152.67"/><line id="Line_152" data-name="Line 152" class="cls-2" x1="66.79" y1="157.42" x2="90.74" y2="157.42"/><line id="Line_153" data-name="Line 153" class="cls-2" x1="66.79" y1="162.18" x2="90.74" y2="162.18"/><line id="Line_154" data-name="Line 154" class="cls-2" x1="90.66" y1="133.65" x2="114.61" y2="133.65"/><line id="Line_155" data-name="Line 155" class="cls-2" x1="90.66" y1="138.4" x2="114.61" y2="138.4"/><line id="Line_156" data-name="Line 156" class="cls-2" x1="90.66" y1="143.16" x2="114.61" y2="143.16"/><line id="Line_157" data-name="Line 157" class="cls-2" x1="90.66" y1="147.91" x2="114.61" y2="147.91"/><line id="Line_158" data-name="Line 158" class="cls-2" x1="90.66" y1="152.67" x2="114.61" y2="152.67"/><line id="Line_159" data-name="Line 159" class="cls-2" x1="90.66" y1="157.42" x2="114.61" y2="157.42"/><line id="Line_160" data-name="Line 160" class="cls-2" x1="90.66" y1="162.18" x2="114.61" y2="162.18"/><line id="Line_161" data-name="Line 161" class="cls-2" x1="90.66" y1="166.6" x2="114.61" y2="166.6"/><line id="Line_162" data-name="Line 162" class="cls-2" x1="90.66" y1="171.01" x2="114.61" y2="171.01"/><line id="Line_163" data-name="Line 163" class="cls-2" x1="90.66" y1="175.43" x2="114.61" y2="175.43"/><line id="Line_164" data-name="Line 164" class="cls-2" x1="80.77" y1="78.13" x2="128.49" y2="78.13"/><line id="Line_165" data-name="Line 165" class="cls-2" x1="80.77" y1="98.28" x2="122.41" y2="98.28"/><line id="Line_166" data-name="Line 166" class="cls-2" x1="93.32" y1="78.13" x2="93.32" y2="98.28"/><line id="Line_167" data-name="Line 167" class="cls-2" x1="97.88" y1="78.13" x2="97.88" y2="98.28"/><line id="Line_168" data-name="Line 168" class="cls-2" x1="102.45" y1="78.13" x2="102.45" y2="98.28"/><line id="Line_169" data-name="Line 169" class="cls-2" x1="107.01" y1="78.13" x2="107.01" y2="98.28"/><line id="Line_170" data-name="Line 170" class="cls-2" x1="111.57" y1="78.13" x2="111.57" y2="98.28"/><line id="Line_171" data-name="Line 171" class="cls-2" x1="116.13" y1="78.13" x2="116.13" y2="98.28"/><path id="Path_6023" data-name="Path 6023" class="cls-1" d="M354,313.21v12h60.25"/><path id="Path_6024" data-name="Path 6024" class="cls-1" d="M363,326.15v36.74h51.23"/><path id="Path_6025" data-name="Path 6025" class="cls-1" d="M363,362.89v11.64h41.59V362.89"/><path id="Path_6026" data-name="Path 6026" class="cls-1" d="M413,258.15H354v37.66"/><path id="Path_6027" data-name="Path 6027" class="cls-4" d="M493.61,342.81a19.69,19.69,0,0,1-19.69-19.68"/><path id="Path_6028" data-name="Path 6028" class="cls-4" d="M454.24,342.81a19.69,19.69,0,0,0,19.69-19.68"/><g id="Group_781" data-name="Group 781"><path id="Path_6029" data-name="Path 6029" class="cls-4" d="M427,312.71a14.35,14.35,0,0,0-14.35-14.35v14.35"/><line id="Line_172" data-name="Line 172" class="cls-5" x1="412.64" y1="312.71" x2="426.99" y2="312.71"/></g><g id="Group_782" data-name="Group 782"><path id="Path_6030" data-name="Path 6030" class="cls-4" d="M370.88,312.71a16.9,16.9,0,0,0-16.9-16.9h0v16.9"/><line id="Line_173" data-name="Line 173" class="cls-5" x1="353.98" y1="312.71" x2="370.88" y2="312.71"/></g><g id="Group_783" data-name="Group 783"><path id="Path_6031" data-name="Path 6031" class="cls-4" d="M41.16,174.27A19.52,19.52,0,0,0,60.68,193.8h0V174.27"/><line id="Line_174" data-name="Line 174" class="cls-5" x1="60.68" y1="174.27" x2="41.16" y2="174.27"/></g><g id="Group_784" data-name="Group 784"><path id="Path_6032" data-name="Path 6032" class="cls-4" d="M50,78.44a14.5,14.5,0,0,0,14.5,14.5h0V78.44"/><line id="Line_175" data-name="Line 175" class="cls-5" x1="64.54" y1="78.44" x2="50.04" y2="78.44"/></g><g id="Group_785" data-name="Group 785"><path id="Path_6033" data-name="Path 6033" class="cls-4" d="M195.19,66.09a14.5,14.5,0,0,1,14.5-14.5h0v14.5"/><line id="Line_176" data-name="Line 176" class="cls-5" x1="209.69" y1="66.09" x2="195.2" y2="66.09"/></g><line id="Line_177" data-name="Line 177" class="cls-2" x1="209.7" y1="30.94" x2="209.7" y2="51.59"/><line id="Line_178" data-name="Line 178" class="cls-2" x1="209.7" y1="65.32" x2="209.7" y2="109.56"/><g id="Group_786" data-name="Group 786"><path id="Path_6034" data-name="Path 6034" class="cls-4" d="M615.62,56.17a14.5,14.5,0,0,1-14.5,14.5h0V56.17"/><line id="Line_179" data-name="Line 179" class="cls-5" x1="601.12" y1="56.17" x2="615.62" y2="56.17"/></g><g id="Group_787" data-name="Group 787"><path id="Path_6035" data-name="Path 6035" class="cls-4" d="M656.86,53.79a21.45,21.45,0,0,0,21.45,21.46V53.79"/><line id="Line_180" data-name="Line 180" class="cls-5" x1="678.31" y1="53.79" x2="656.86" y2="53.79"/></g><line id="Line_181" data-name="Line 181" class="cls-2" x1="601.12" y1="30.94" x2="601.12" y2="56.17"/><line id="Line_182" data-name="Line 182" class="cls-2" x1="601.12" y1="69.9" x2="601.12" y2="109.56"/><path id="Path_6036" data-name="Path 6036" class="cls-2" d="M681.54,102.27h88.78V51"/><line id="Line_183" data-name="Line 183" class="cls-2" x1="63.28" y1="105.57" x2="135.88" y2="105.57"/><path id="Path_6037" data-name="Path 6037" class="cls-2" d="M116.13,105.57V200.7H69.26"/><line id="Line_184" data-name="Line 184" class="cls-2" x1="920.86" y1="42.82" x2="920.86" y2="325.18"/><line id="Line_185" data-name="Line 185" class="cls-2" x1="808.44" y1="324.3" x2="921.65" y2="324.3"/></g><rect id="Rectangle_1692" data-name="Rectangle 1692" class="cls-6" x="817.46" y="56.22" width="101.23" height="46.1"/><rect id="Rectangle_1693" data-name="Rectangle 1693" class="cls-6" x="817.46" y="104.61" width="101.23" height="50.76"/><path id="Path_6038" data-name="Path 6038" class="cls-6" d="M764.57,168.87l11.64-11.34h39V212.4H764.57Z"/><path id="Path_6039" data-name="Path 6039" class="cls-6" d="M727.82,105.44h41.4v35.29l-12.78,11.13H727.82Z"/><rect id="Rectangle_1694" data-name="Rectangle 1694" class="cls-6" x="631.73" y="113.89" width="45.97" height="37.97"/><rect id="Rectangle_1695" data-name="Rectangle 1695" class="cls-6" x="764.57" y="214.68" width="50.61" height="49.87"/><rect id="Rectangle_1696" data-name="Rectangle 1696" class="cls-6" x="817.46" y="214.68" width="101.23" height="49.87"/><path id="Path_6040" data-name="Path 6040" class="cls-6" d="M806.91,311h8.27V266.84H764.57v15l39.2,38.73h3.14Z"/><path id="Path_6041" data-name="Path 6041" class="cls-6" d="M908.22,320.53v-9.6h10.47V266.84H817.46V311h6v9.55Z"/><path id="Path_6042" data-name="Path 6042" class="cls-6" d="M908.36,209.32V192.78h10.33V157.53H818V212.4H918.69v-3.08Z"/><rect id="Rectangle_1697" data-name="Rectangle 1697" class="cls-6" x="584.62" y="113.89" width="44.84" height="37.97"/><rect id="Rectangle_1698" data-name="Rectangle 1698" class="cls-6" x="536.78" y="113.89" width="45.56" height="37.97"/><path id="Path_6043" data-name="Path 6043" class="cls-6" d="M686,105.44v8.45h-6.21v38h46V105.44Z"/><rect id="Rectangle_1699" data-name="Rectangle 1699" class="cls-6" x="631.73" y="194.31" width="45.97" height="37.97"/><path id="Path_6044" data-name="Path 6044" class="cls-6" d="M631.73,234.42h94v20l-20.46,20.13H631.73Z"/><rect id="Rectangle_1700" data-name="Rectangle 1700" class="cls-6" x="679.78" y="194.31" width="45.97" height="37.97"/><rect id="Rectangle_1701" data-name="Rectangle 1701" class="cls-6" x="584.62" y="194.31" width="44.84" height="37.97"/><rect id="Rectangle_1702" data-name="Rectangle 1702" class="cls-6" x="584.62" y="234.27" width="44.84" height="40.26"/><rect id="Rectangle_1703" data-name="Rectangle 1703" class="cls-6" x="536.78" y="234.27" width="45.56" height="40.26"/><rect id="Rectangle_1704" data-name="Rectangle 1704" class="cls-6" x="586.38" y="315.4" width="42.67" height="49.04"/><rect id="Rectangle_1705" data-name="Rectangle 1705" class="cls-6" x="586.38" y="366.72" width="42.67" height="44.22"/><rect id="Rectangle_1706" data-name="Rectangle 1706" class="cls-6" x="631.33" y="315.4" width="43.84" height="49.04"/><rect id="Rectangle_1707" data-name="Rectangle 1707" class="cls-6" x="631.33" y="366.72" width="43.84" height="44.22"/><rect id="Rectangle_1708" data-name="Rectangle 1708" class="cls-6" x="677.45" y="315.4" width="43.84" height="49.04"/><rect id="Rectangle_1709" data-name="Rectangle 1709" class="cls-6" x="677.45" y="366.72" width="43.84" height="44.22"/><path id="Path_6045" data-name="Path 6045" class="cls-6" d="M764.82,402.67h9.25V364.44l-50.5-49v95.54h41.25Z"/><path id="Path_6046" data-name="Path 6046" class="cls-6" d="M536.78,366.72v35.95h7.91v8.27H584.1V366.72Z"/><path id="Path_6047" data-name="Path 6047" class="cls-6" d="M544.69,315.4V328h-7.91v36.48H584.1v-49Z"/><path id="Path_6048" data-name="Path 6048" class="cls-6" d="M359.66,378.94V329.47h-9.13v-75.8H410.7V113.89H267V408.66H410.7V378.94Z"/><path id="Path_6049" data-name="Path 6049" class="cls-6" d="M131.16,113.89v-5.17H120v95H72.29v7.13h-4v82.32h72.27V408.66h118V113.89Z"/><g id="_01" data-name=" 01" class="cls-7"><g class="cls-7"><path class="cls-8" d="M866.35,73.66a9.06,9.06,0,0,1,.84,4.27,10.25,10.25,0,0,1-.76,4.24,3.75,3.75,0,0,1-3.63,2.41,3.63,3.63,0,0,1-3.37-2,9,9,0,0,1-.92-4.41,10.85,10.85,0,0,1,.55-3.68,3.79,3.79,0,0,1,3.75-2.87A3.73,3.73,0,0,1,866.35,73.66Zm-1.6,8.39a7.84,7.84,0,0,0,.74-4.06,10.06,10.06,0,0,0-.53-3.53,2,2,0,0,0-2.05-1.39,2.14,2.14,0,0,0-2,1.32,9.1,9.1,0,0,0-.65,3.87,9.66,9.66,0,0,0,.41,3.09,2.25,2.25,0,0,0,4.13.7Z"/><path class="cls-8" d="M869.68,75.32V74.11a6.43,6.43,0,0,0,2.39-.56,2.72,2.72,0,0,0,1-1.85h1.25V84.24h-1.69V75.32Z"/></g></g><g id="_02" data-name=" 02" class="cls-7"><g class="cls-7"><path class="cls-8" d="M865.75,127.16a9,9,0,0,1,.84,4.26,10.29,10.29,0,0,1-.77,4.25,3.74,3.74,0,0,1-3.62,2.41,3.63,3.63,0,0,1-3.37-2,9,9,0,0,1-.92-4.41,11,11,0,0,1,.55-3.69,3.78,3.78,0,0,1,3.75-2.86A3.73,3.73,0,0,1,865.75,127.16Zm-1.6,8.39a7.88,7.88,0,0,0,.73-4.07,10.06,10.06,0,0,0-.52-3.52,2,2,0,0,0-2.06-1.39,2.14,2.14,0,0,0-2,1.32,9,9,0,0,0-.65,3.87,9.66,9.66,0,0,0,.41,3.09,2.25,2.25,0,0,0,4.13.7Z"/><path class="cls-8" d="M868.59,134.9a5.41,5.41,0,0,1,2.28-2.18l1.69-1a7.89,7.89,0,0,0,1.59-1.13,2.3,2.3,0,0,0,.72-1.67,2.34,2.34,0,0,0-.66-1.75,2.41,2.41,0,0,0-1.76-.64,2.3,2.3,0,0,0-2.25,1.23,4.57,4.57,0,0,0-.37,1.83h-1.61a5.65,5.65,0,0,1,.61-2.68,3.81,3.81,0,0,1,3.63-1.83,3.74,3.74,0,0,1,4.16,3.77,3.56,3.56,0,0,1-1.07,2.59,10.51,10.51,0,0,1-2.2,1.51l-1.21.67a8.05,8.05,0,0,0-1.35.9,3.28,3.28,0,0,0-1.11,1.7h6.88v1.49h-8.64A7.23,7.23,0,0,1,868.59,134.9Z"/></g></g><g id="_18" data-name=" 18" class="cls-7"><g class="cls-7"><path class="cls-8" d="M739.27,128.82v-1.21a6.49,6.49,0,0,0,2.4-.56,2.79,2.79,0,0,0,1-1.85h1.24v12.53h-1.68v-8.91Z"/><path class="cls-8" d="M749.28,130.37a2.47,2.47,0,0,1-.7-1.83,3.3,3.3,0,0,1,1-2.42,4.65,4.65,0,0,1,5.72-.05,3.08,3.08,0,0,1,.43,4.13,3.36,3.36,0,0,1-1,.81,4.07,4.07,0,0,1,1.23.83,3.14,3.14,0,0,1,.84,2.28,3.88,3.88,0,0,1-1.12,2.82,4.16,4.16,0,0,1-3.15,1.15,4.9,4.9,0,0,1-3.11-1,3.49,3.49,0,0,1-1.27-2.9A3.23,3.23,0,0,1,750.3,131,3.21,3.21,0,0,1,749.28,130.37Zm5.1,5.69a2.17,2.17,0,0,0,.72-1.77,2.33,2.33,0,0,0-.74-1.86,2.88,2.88,0,0,0-1.92-.63,2.66,2.66,0,0,0-1.85.65,2.27,2.27,0,0,0-.72,1.79,2.44,2.44,0,0,0,.66,1.7,2.64,2.64,0,0,0,2,.71A2.81,2.81,0,0,0,754.38,136.06Zm-.3-6.22a1.9,1.9,0,0,0,.59-1.4,1.84,1.84,0,0,0-.56-1.3,2.26,2.26,0,0,0-1.71-.59,1.91,1.91,0,0,0-2.16,2,1.66,1.66,0,0,0,.66,1.39,2.52,2.52,0,0,0,1.55.5A2.2,2.2,0,0,0,754.08,129.84Z"/></g></g><g id="_19" data-name=" 19" class="cls-7"><g class="cls-7"><path class="cls-8" d="M690.4,128.82v-1.21a6.43,6.43,0,0,0,2.39-.56,2.75,2.75,0,0,0,1-1.85h1.25v12.53h-1.69v-8.91Z"/><path class="cls-8" d="M701.08,134.68a2,2,0,0,0,1,1.81,2.2,2.2,0,0,0,1.09.27,2.44,2.44,0,0,0,1.93-.95,7.66,7.66,0,0,0,1.14-3.83,2.92,2.92,0,0,1-1.31,1.17,4.06,4.06,0,0,1-1.67.34,3.78,3.78,0,0,1-2.88-1.13,4.1,4.1,0,0,1-1.06-2.92,4.66,4.66,0,0,1,1-3,3.69,3.69,0,0,1,3.08-1.3,3.8,3.8,0,0,1,3.8,2.48,8.67,8.67,0,0,1,.58,3.41,11.06,11.06,0,0,1-.7,4.09q-1.14,3-3.9,3a3.79,3.79,0,0,1-2.8-1,3.29,3.29,0,0,1-1-2.43Zm4.12-3.2a2.6,2.6,0,0,0,.78-2.16,2.8,2.8,0,0,0-.7-2.07,2.47,2.47,0,0,0-1.78-.68,2.3,2.3,0,0,0-1.84.78,3.47,3.47,0,0,0-.09,4,2.35,2.35,0,0,0,1.91.72A2.71,2.71,0,0,0,705.2,131.48Z"/></g></g><g id="_20" data-name=" 20" class="cls-7"><g class="cls-7"><path class="cls-8" d="M645.43,134.06a5.18,5.18,0,0,1,2.15-2.07l1.6-.92a7.6,7.6,0,0,0,1.5-1.06,2.21,2.21,0,0,0,.68-1.58,2.23,2.23,0,0,0-.62-1.65,2.27,2.27,0,0,0-1.66-.61,2.18,2.18,0,0,0-2.13,1.16,4.35,4.35,0,0,0-.35,1.73h-1.51a5.23,5.23,0,0,1,.57-2.53,3.6,3.6,0,0,1,3.43-1.72,3.52,3.52,0,0,1,3.92,3.56,3.34,3.34,0,0,1-1,2.44,9.58,9.58,0,0,1-2.09,1.42l-1.13.64a7.07,7.07,0,0,0-1.28.85,3.2,3.2,0,0,0-1,1.6H653v1.41h-8.17A7,7,0,0,1,645.43,134.06Z"/><path class="cls-8" d="M661.65,126.75a8.38,8.38,0,0,1,.8,4,9.69,9.69,0,0,1-.72,4,3.54,3.54,0,0,1-3.42,2.28,3.43,3.43,0,0,1-3.19-1.86,8.56,8.56,0,0,1-.87-4.17,10.29,10.29,0,0,1,.52-3.48,3.59,3.59,0,0,1,3.55-2.7A3.49,3.49,0,0,1,661.65,126.75Zm-1.5,7.92a7.48,7.48,0,0,0,.69-3.84,9.5,9.5,0,0,0-.5-3.33,1.9,1.9,0,0,0-1.94-1.31,2,2,0,0,0-1.93,1.24,8.55,8.55,0,0,0-.61,3.66,9,9,0,0,0,.39,2.92,2.12,2.12,0,0,0,3.9.66Z"/></g></g><g id="_21" data-name=" 21" class="cls-7"><g class="cls-7"><path class="cls-8" d="M599.74,134.9a5.41,5.41,0,0,1,2.28-2.18l1.69-1a7.33,7.33,0,0,0,1.59-1.13,2.3,2.3,0,0,0,.72-1.67,2.34,2.34,0,0,0-.66-1.75,2.39,2.39,0,0,0-1.75-.64,2.29,2.29,0,0,0-2.25,1.23,4.25,4.25,0,0,0-.37,1.83h-1.61a5.77,5.77,0,0,1,.6-2.68,3.81,3.81,0,0,1,3.63-1.83,3.74,3.74,0,0,1,4.16,3.77,3.55,3.55,0,0,1-1.06,2.59A10.64,10.64,0,0,1,604.5,133l-1.2.67a7.79,7.79,0,0,0-1.36.9,3.32,3.32,0,0,0-1.1,1.7h6.87v1.49h-8.64A7.41,7.41,0,0,1,599.74,134.9Z"/><path class="cls-8" d="M610.24,128.82v-1.21a6.43,6.43,0,0,0,2.39-.56,2.75,2.75,0,0,0,1-1.85h1.25v12.53H613.2v-8.91Z"/></g></g><g id="_22" data-name=" 22" class="cls-7"><g class="cls-7"><path class="cls-8" d="M550.38,134.9a5.41,5.41,0,0,1,2.28-2.18l1.69-1a7.89,7.89,0,0,0,1.59-1.13,2.3,2.3,0,0,0,.72-1.67,2.34,2.34,0,0,0-.66-1.75,2.41,2.41,0,0,0-1.76-.64,2.3,2.3,0,0,0-2.25,1.23,4.57,4.57,0,0,0-.37,1.83H550a5.54,5.54,0,0,1,.6-2.68,3.81,3.81,0,0,1,3.63-1.83,3.74,3.74,0,0,1,4.16,3.77,3.59,3.59,0,0,1-1.06,2.59,10.64,10.64,0,0,1-2.21,1.51l-1.2.67a7.79,7.79,0,0,0-1.36.9,3.41,3.41,0,0,0-1.11,1.7h6.88v1.49h-8.64A7.41,7.41,0,0,1,550.38,134.9Z"/><path class="cls-8" d="M560.39,134.9a5.41,5.41,0,0,1,2.28-2.18l1.69-1a7.6,7.6,0,0,0,1.59-1.13,2.3,2.3,0,0,0,.72-1.67,2.34,2.34,0,0,0-.66-1.75,2.4,2.4,0,0,0-1.76-.64,2.3,2.3,0,0,0-2.25,1.23,4.57,4.57,0,0,0-.37,1.83H560a5.65,5.65,0,0,1,.6-2.68,3.81,3.81,0,0,1,3.63-1.83,3.74,3.74,0,0,1,4.16,3.77,3.59,3.59,0,0,1-1.06,2.59,10.64,10.64,0,0,1-2.21,1.51l-1.2.67a7.79,7.79,0,0,0-1.36.9,3.41,3.41,0,0,0-1.11,1.7h6.88v1.49h-8.64A7.41,7.41,0,0,1,560.39,134.9Z"/></g></g><g id="_26" data-name=" 26" class="cls-7"><g class="cls-7"><path class="cls-8" d="M689.31,215.48a5.41,5.41,0,0,1,2.28-2.18l1.69-1a7.33,7.33,0,0,0,1.59-1.13,2.3,2.3,0,0,0,.72-1.67,2.34,2.34,0,0,0-.66-1.75,2.39,2.39,0,0,0-1.75-.64,2.29,2.29,0,0,0-2.25,1.23,4.25,4.25,0,0,0-.37,1.83H689a5.77,5.77,0,0,1,.6-2.68,3.81,3.81,0,0,1,3.63-1.83,3.74,3.74,0,0,1,4.16,3.77,3.55,3.55,0,0,1-1.06,2.59,10.64,10.64,0,0,1-2.21,1.51l-1.2.67a7.79,7.79,0,0,0-1.36.9,3.32,3.32,0,0,0-1.1,1.7h6.87v1.49h-8.64A7.41,7.41,0,0,1,689.31,215.48Z"/><path class="cls-8" d="M706.29,206.77a3.65,3.65,0,0,1,.83,2.25h-1.56a2.86,2.86,0,0,0-.45-1.17,2,2,0,0,0-1.73-.79,2.4,2.4,0,0,0-2.11,1.23,7.11,7.11,0,0,0-.87,3.51,3.4,3.4,0,0,1,1.37-1.19,3.91,3.91,0,0,1,1.69-.36,4.1,4.1,0,0,1,2.76,1,3.75,3.75,0,0,1,1.18,3,4.61,4.61,0,0,1-1.12,3,3.92,3.92,0,0,1-3.18,1.32,4.08,4.08,0,0,1-3.05-1.34c-.86-.89-1.28-2.4-1.28-4.51a12.2,12.2,0,0,1,.57-4q1.1-3.12,4-3.12A3.46,3.46,0,0,1,706.29,206.77Zm-1.18,9.62a3.26,3.26,0,0,0,.62-2,3.39,3.39,0,0,0-.56-1.84,2.2,2.2,0,0,0-2-.87,2.62,2.62,0,0,0-1.79.67,2.58,2.58,0,0,0-.77,2,3,3,0,0,0,.7,2,2.43,2.43,0,0,0,1.94.81A2.19,2.19,0,0,0,705.11,216.39Z"/></g></g><g id="_25" data-name=" 25" class="cls-7"><g class="cls-7"><path class="cls-8" d="M645.54,215.48a5.41,5.41,0,0,1,2.28-2.18l1.69-1a7.33,7.33,0,0,0,1.59-1.13,2.3,2.3,0,0,0,.72-1.67,2.34,2.34,0,0,0-.66-1.75,2.39,2.39,0,0,0-1.75-.64,2.29,2.29,0,0,0-2.25,1.23,4.25,4.25,0,0,0-.37,1.83h-1.61a5.77,5.77,0,0,1,.6-2.68,3.81,3.81,0,0,1,3.63-1.83,3.74,3.74,0,0,1,4.16,3.77,3.55,3.55,0,0,1-1.06,2.59,10.64,10.64,0,0,1-2.21,1.51l-1.2.67a7.79,7.79,0,0,0-1.36.9,3.32,3.32,0,0,0-1.1,1.7h6.87v1.49h-8.64A7.41,7.41,0,0,1,645.54,215.48Z"/><path class="cls-8" d="M656.54,215.11A2.21,2.21,0,0,0,657.8,217a3.11,3.11,0,0,0,1.3.26,2.45,2.45,0,0,0,2.08-.89,3.24,3.24,0,0,0,.68-2,2.61,2.61,0,0,0-.8-2,3.07,3.07,0,0,0-3.34-.4,2.94,2.94,0,0,0-1,.87l-1.37-.07.95-6.78h6.54v1.53H657.5L657,211a3.85,3.85,0,0,1,.84-.5,4.11,4.11,0,0,1,1.62-.29,4.17,4.17,0,0,1,2.94,1.11,3.71,3.71,0,0,1,1.2,2.83,4.84,4.84,0,0,1-1.1,3.15,4.25,4.25,0,0,1-3.52,1.36,4.54,4.54,0,0,1-2.72-.86,3.43,3.43,0,0,1-1.32-2.66Z"/></g></g><g id="_24" data-name=" 24" class="cls-7"><g class="cls-7"><path class="cls-8" d="M599.94,215.48a5.41,5.41,0,0,1,2.28-2.18l1.69-1a7.33,7.33,0,0,0,1.59-1.13,2.3,2.3,0,0,0,.72-1.67,2.34,2.34,0,0,0-.66-1.75,2.39,2.39,0,0,0-1.75-.64,2.29,2.29,0,0,0-2.25,1.23,4.25,4.25,0,0,0-.37,1.83h-1.61a5.77,5.77,0,0,1,.6-2.68,3.81,3.81,0,0,1,3.63-1.83,3.74,3.74,0,0,1,4.16,3.77,3.55,3.55,0,0,1-1.06,2.59,10.64,10.64,0,0,1-2.21,1.51l-1.2.67a7.79,7.79,0,0,0-1.36.9,3.32,3.32,0,0,0-1.1,1.7h6.87v1.49h-8.64A7.41,7.41,0,0,1,599.94,215.48Z"/><path class="cls-8" d="M614.7,218.31v-3.07h-5.52v-1.55l5.76-8h1.34v8.17h1.85v1.38h-1.85v3.07Zm0-4.45v-5.72l-4,5.72Z"/></g></g><g id="_27.28" data-name=" 27.28" class="cls-7"><g class="cls-7"><path class="cls-8" d="M655,255.26a5.49,5.49,0,0,1,2.28-2.19l1.69-1a7.37,7.37,0,0,0,1.59-1.12,2.46,2.46,0,0,0,.06-3.42,2.39,2.39,0,0,0-1.75-.65,2.29,2.29,0,0,0-2.25,1.23,4.33,4.33,0,0,0-.37,1.84H654.6a5.62,5.62,0,0,1,.61-2.68,3.79,3.79,0,0,1,3.62-1.83,3.74,3.74,0,0,1,4.16,3.77,3.51,3.51,0,0,1-1.06,2.58,10.6,10.6,0,0,1-2.21,1.52l-1.2.66a7.76,7.76,0,0,0-1.36.91,3.29,3.29,0,0,0-1.1,1.69h6.87v1.5h-8.64A7.32,7.32,0,0,1,655,255.26Z"/><path class="cls-8" d="M673.15,245.71v1.38a15.73,15.73,0,0,0-1.61,2,20.88,20.88,0,0,0-1.78,3.15,20.45,20.45,0,0,0-1.16,3c-.17.58-.39,1.51-.66,2.8h-1.75a21.59,21.59,0,0,1,2.64-7.17,22.32,22.32,0,0,1,2.53-3.62h-7v-1.59Z"/><path class="cls-8" d="M675.29,256.17h1.83v1.92h-1.83Z"/><path class="cls-8" d="M680,255.26a5.43,5.43,0,0,1,2.28-2.19l1.68-1a7.37,7.37,0,0,0,1.59-1.12,2.3,2.3,0,0,0,.73-1.67,2.37,2.37,0,0,0-.66-1.75,2.42,2.42,0,0,0-1.76-.65,2.29,2.29,0,0,0-2.25,1.23,4.49,4.49,0,0,0-.37,1.84h-1.61a5.62,5.62,0,0,1,.61-2.68,3.79,3.79,0,0,1,3.63-1.83,3.72,3.72,0,0,1,4.15,3.77,3.51,3.51,0,0,1-1.06,2.58,10.6,10.6,0,0,1-2.21,1.52l-1.2.66a8,8,0,0,0-1.35.91,3.25,3.25,0,0,0-1.11,1.69H688v1.5h-8.64A7.32,7.32,0,0,1,680,255.26Z"/><path class="cls-8" d="M690.47,250.72a2.48,2.48,0,0,1-.69-1.82,3.28,3.28,0,0,1,1-2.42,3.9,3.9,0,0,1,2.89-1,4,4,0,0,1,2.83.95,3.1,3.1,0,0,1,.43,4.14,3.84,3.84,0,0,1-1,.81,4.05,4.05,0,0,1,1.23.82,3.18,3.18,0,0,1,.84,2.29,3.88,3.88,0,0,1-1.12,2.81,4.17,4.17,0,0,1-3.15,1.16,4.85,4.85,0,0,1-3.11-1,3.44,3.44,0,0,1-1.27-2.89,3.32,3.32,0,0,1,.55-1.93,3.37,3.37,0,0,1,1.61-1.25A3,3,0,0,1,690.47,250.72Zm5.11,5.7a2.18,2.18,0,0,0,.72-1.78,2.28,2.28,0,0,0-.75-1.85,2.84,2.84,0,0,0-1.91-.63,2.65,2.65,0,0,0-1.85.64,2.28,2.28,0,0,0-.72,1.79,2.42,2.42,0,0,0,.66,1.7,2.59,2.59,0,0,0,2,.72A2.83,2.83,0,0,0,695.58,256.42Zm-.3-6.23a1.88,1.88,0,0,0,.59-1.4,1.84,1.84,0,0,0-.56-1.29,2.26,2.26,0,0,0-1.71-.59,2.08,2.08,0,0,0-1.65.59,2,2,0,0,0-.51,1.38,1.63,1.63,0,0,0,.66,1.39,2.47,2.47,0,0,0,1.55.51A2.2,2.2,0,0,0,695.28,250.19Z"/></g></g><g id="_29" data-name=" 29" class="cls-7"><g class="cls-7"><path class="cls-8" d="M599.14,255.26a5.49,5.49,0,0,1,2.28-2.19l1.69-1A7.37,7.37,0,0,0,604.7,251a2.46,2.46,0,0,0,.06-3.42,2.39,2.39,0,0,0-1.75-.65,2.29,2.29,0,0,0-2.25,1.23,4.33,4.33,0,0,0-.37,1.84h-1.61a5.74,5.74,0,0,1,.6-2.68,3.81,3.81,0,0,1,3.63-1.83,3.74,3.74,0,0,1,4.16,3.77,3.51,3.51,0,0,1-1.06,2.58,10.6,10.6,0,0,1-2.21,1.52l-1.2.66a7.76,7.76,0,0,0-1.36.91,3.29,3.29,0,0,0-1.1,1.69h6.87v1.5h-8.64A7.32,7.32,0,0,1,599.14,255.26Z"/><path class="cls-8" d="M610.31,255a2,2,0,0,0,1,1.81,2.2,2.2,0,0,0,1.09.26,2.43,2.43,0,0,0,1.93-.94,7.78,7.78,0,0,0,1.14-3.84,2.87,2.87,0,0,1-1.31,1.17,4.06,4.06,0,0,1-1.67.34,3.74,3.74,0,0,1-2.88-1.13,4.07,4.07,0,0,1-1.06-2.91,4.64,4.64,0,0,1,1.05-3,3.69,3.69,0,0,1,3.08-1.3,3.79,3.79,0,0,1,3.8,2.47,8.7,8.7,0,0,1,.58,3.41,11.06,11.06,0,0,1-.7,4.09q-1.14,3-3.9,3a3.75,3.75,0,0,1-2.8-1,3.29,3.29,0,0,1-1-2.42Zm4.12-3.2a2.64,2.64,0,0,0,.78-2.17,2.77,2.77,0,0,0-.7-2.06,2.43,2.43,0,0,0-1.78-.68,2.36,2.36,0,0,0-1.85.77,3.06,3.06,0,0,0-.68,2.08,3,3,0,0,0,.6,1.95,2.36,2.36,0,0,0,1.91.73A2.71,2.71,0,0,0,614.43,251.84Z"/></g></g><g id="_30" data-name=" 30" class="cls-7"><g class="cls-7"><path class="cls-8" d="M550.46,256.25a4.25,4.25,0,0,1-1-2.81h1.56a3.77,3.77,0,0,0,.43,1.67,2.27,2.27,0,0,0,2.1.94,2.73,2.73,0,0,0,1.89-.63,2.06,2.06,0,0,0,.72-1.63,1.87,1.87,0,0,0-.75-1.71,3.8,3.8,0,0,0-2.09-.5h-.62v-1.32l.39,0h.34a3.09,3.09,0,0,0,1.38-.26,1.7,1.7,0,0,0,.95-1.66,1.62,1.62,0,0,0-.63-1.37,2.36,2.36,0,0,0-1.47-.48,2.18,2.18,0,0,0-2.07,1,3.52,3.52,0,0,0-.36,1.56h-1.47a4.41,4.41,0,0,1,.53-2.25,3.34,3.34,0,0,1,3.21-1.66,4.34,4.34,0,0,1,2.81.81,2.81,2.81,0,0,1,1,2.34,2.65,2.65,0,0,1-.59,1.78,2.45,2.45,0,0,1-.95.66,2.56,2.56,0,0,1,1.47,1,3,3,0,0,1,.53,1.8,3.68,3.68,0,0,1-1.12,2.77,4.4,4.4,0,0,1-3.18,1.07A3.7,3.7,0,0,1,550.46,256.25Z"/><path class="cls-8" d="M566.49,247.1a8.52,8.52,0,0,1,.8,4,9.72,9.72,0,0,1-.72,4,3.55,3.55,0,0,1-3.42,2.27,3.43,3.43,0,0,1-3.19-1.86,8.49,8.49,0,0,1-.87-4.16,10.29,10.29,0,0,1,.52-3.48,3.57,3.57,0,0,1,3.54-2.71A3.53,3.53,0,0,1,566.49,247.1ZM565,255a7.41,7.41,0,0,0,.69-3.83,9.6,9.6,0,0,0-.5-3.34,1.89,1.89,0,0,0-1.94-1.3,2,2,0,0,0-1.93,1.24,8.5,8.5,0,0,0-.61,3.65,9,9,0,0,0,.39,2.93,2.13,2.13,0,0,0,3.9.65Z"/></g></g><g id="_03" data-name=" 03" class="cls-7"><g class="cls-7"><path class="cls-8" d="M865.75,180.66a9,9,0,0,1,.84,4.26,10.2,10.2,0,0,1-.77,4.24,3.73,3.73,0,0,1-3.62,2.41,3.61,3.61,0,0,1-3.37-2,8.93,8.93,0,0,1-.92-4.41,10.85,10.85,0,0,1,.55-3.68,3.79,3.79,0,0,1,3.75-2.87A3.72,3.72,0,0,1,865.75,180.66Zm-1.6,8.38a7.86,7.86,0,0,0,.73-4.06,10.08,10.08,0,0,0-.52-3.53,2,2,0,0,0-2.06-1.38,2.14,2.14,0,0,0-2,1.31,9.1,9.1,0,0,0-.65,3.87,9.68,9.68,0,0,0,.41,3.1,2.26,2.26,0,0,0,2.17,1.78A2.24,2.24,0,0,0,864.15,189Z"/><path class="cls-8" d="M868.79,190.35a4.58,4.58,0,0,1-1-3h1.66a4.17,4.17,0,0,0,.45,1.78,2.41,2.41,0,0,0,2.23,1,2.88,2.88,0,0,0,2-.67,2.2,2.2,0,0,0,.76-1.72,2,2,0,0,0-.8-1.82,4.08,4.08,0,0,0-2.21-.52h-.65V184l.41,0H872a3.39,3.39,0,0,0,1.46-.28,1.8,1.8,0,0,0,1-1.76,1.73,1.73,0,0,0-.67-1.45,2.52,2.52,0,0,0-1.56-.51,2.32,2.32,0,0,0-2.19,1.05,3.59,3.59,0,0,0-.37,1.65H868.1a4.83,4.83,0,0,1,.56-2.39,3.55,3.55,0,0,1,3.4-1.75,4.6,4.6,0,0,1,3,.85A3,3,0,0,1,876.1,182a2.76,2.76,0,0,1-.63,1.88,2.54,2.54,0,0,1-1,.7,2.71,2.71,0,0,1,1.55,1,3.12,3.12,0,0,1,.56,1.9,3.9,3.9,0,0,1-1.18,2.94,4.73,4.73,0,0,1-3.37,1.13A4,4,0,0,1,868.79,190.35Z"/></g></g><g id="_17" data-name=" 17" class="cls-7"><g class="cls-7"><path class="cls-8" d="M783,182.32V181.1a6.47,6.47,0,0,0,2.39-.55,2.75,2.75,0,0,0,1-1.85h1.25v12.53H786v-8.91Z"/><path class="cls-8" d="M800.72,178.85v1.38a14.9,14.9,0,0,0-1.61,2.05,23.53,23.53,0,0,0-2.94,6.15c-.17.58-.39,1.51-.66,2.8h-1.75a21.78,21.78,0,0,1,2.63-7.17,22.41,22.41,0,0,1,2.54-3.61h-7v-1.6Z"/></g></g><g id="_04" data-name=" 04" class="cls-7"><g class="cls-7"><path class="cls-8" d="M865.83,233.74a8.4,8.4,0,0,1,.8,4,9.67,9.67,0,0,1-.72,4,3.54,3.54,0,0,1-3.42,2.28,3.43,3.43,0,0,1-3.19-1.86,8.51,8.51,0,0,1-.87-4.17,10.18,10.18,0,0,1,.52-3.47,3.59,3.59,0,0,1,3.55-2.71A3.49,3.49,0,0,1,865.83,233.74Zm-1.5,7.92a7.48,7.48,0,0,0,.69-3.84,9.5,9.5,0,0,0-.5-3.33,1.9,1.9,0,0,0-1.94-1.31,2,2,0,0,0-1.93,1.25,8.47,8.47,0,0,0-.61,3.65,9,9,0,0,0,.39,2.92,2.12,2.12,0,0,0,3.9.66Z"/><path class="cls-8" d="M873,243.73v-2.91h-5.21v-1.46l5.44-7.55h1.26v7.71h1.75v1.3h-1.75v2.91Zm0-4.21v-5.4l-3.81,5.4Z"/></g></g><g id="_16" data-name=" 16" class="cls-7"><g class="cls-7"><path class="cls-8" d="M783,235.81V234.6a6.43,6.43,0,0,0,2.39-.56,2.72,2.72,0,0,0,1-1.85h1.25v12.54H786v-8.92Z"/><path class="cls-8" d="M799.51,233.18a3.71,3.71,0,0,1,.83,2.26h-1.56a3,3,0,0,0-.45-1.17,2,2,0,0,0-1.73-.79,2.38,2.38,0,0,0-2.11,1.22,7.11,7.11,0,0,0-.87,3.51A3.4,3.4,0,0,1,795,237a3.84,3.84,0,0,1,1.69-.35,4.09,4.09,0,0,1,2.76,1,3.76,3.76,0,0,1,1.17,3,4.6,4.6,0,0,1-1.11,3,4,4,0,0,1-3.18,1.32,4.08,4.08,0,0,1-3.05-1.34c-.86-.89-1.29-2.4-1.29-4.51a12.14,12.14,0,0,1,.57-4c.74-2.09,2.07-3.13,4-3.13A3.46,3.46,0,0,1,799.51,233.18Zm-1.19,9.63a3.21,3.21,0,0,0,.62-2,3.4,3.4,0,0,0-.55-1.84,2.2,2.2,0,0,0-2-.87,2.48,2.48,0,0,0-2.56,2.71,3,3,0,0,0,.7,2,2.42,2.42,0,0,0,1.94.82A2.15,2.15,0,0,0,798.32,242.81Z"/></g></g><g id="_05" data-name=" 05" class="cls-7"><g class="cls-7"><path class="cls-8" d="M865.83,281.5a8.38,8.38,0,0,1,.8,4,9.72,9.72,0,0,1-.72,4,3.54,3.54,0,0,1-3.42,2.28A3.43,3.43,0,0,1,859.3,290a8.56,8.56,0,0,1-.87-4.17,10.29,10.29,0,0,1,.52-3.48,3.59,3.59,0,0,1,3.55-2.7A3.49,3.49,0,0,1,865.83,281.5Zm-1.5,7.92a7.48,7.48,0,0,0,.69-3.84,9.5,9.5,0,0,0-.5-3.33,1.9,1.9,0,0,0-1.94-1.31,2,2,0,0,0-1.93,1.24,8.55,8.55,0,0,0-.61,3.66,9,9,0,0,0,.39,2.92,2.12,2.12,0,0,0,3.9.66Z"/><path class="cls-8" d="M869.45,288.45a2.09,2.09,0,0,0,1.19,1.77,2.79,2.79,0,0,0,1.23.25,2.31,2.31,0,0,0,2-.85,3.07,3.07,0,0,0,.64-1.87,2.49,2.49,0,0,0-.76-1.93,2.68,2.68,0,0,0-1.83-.68,2.74,2.74,0,0,0-1.32.3,2.86,2.86,0,0,0-.94.83l-1.3-.07.91-6.41h6.17v1.45h-5l-.51,3.3a3.56,3.56,0,0,1,.79-.47,4.07,4.07,0,0,1,1.54-.27,3.94,3.94,0,0,1,2.77,1.05,3.47,3.47,0,0,1,1.14,2.67,4.53,4.53,0,0,1-1.05,3,4,4,0,0,1-3.32,1.29,4.2,4.2,0,0,1-2.57-.82,3.25,3.25,0,0,1-1.25-2.51Z"/></g></g><g id="_15" data-name=" 15" class="cls-7"><g class="cls-7"><path class="cls-8" d="M783,283.57v-1.21a6.43,6.43,0,0,0,2.39-.56,2.75,2.75,0,0,0,1-1.85h1.25v12.53H786v-8.91Z"/><path class="cls-8" d="M793.53,289.27a2.18,2.18,0,0,0,1.26,1.88,3.08,3.08,0,0,0,1.3.26,2.44,2.44,0,0,0,2.08-.9,3.21,3.21,0,0,0,.68-2,2.59,2.59,0,0,0-.81-2,2.78,2.78,0,0,0-1.93-.72,2.92,2.92,0,0,0-1.4.31,3.1,3.1,0,0,0-1,.88l-1.37-.08,1-6.77h6.54v1.53h-5.35l-.54,3.49a4.21,4.21,0,0,1,.84-.5,4.26,4.26,0,0,1,1.62-.29,4.19,4.19,0,0,1,2.94,1.12,3.7,3.7,0,0,1,1.2,2.83,4.89,4.89,0,0,1-1.1,3.15,4.3,4.3,0,0,1-3.52,1.36,4.46,4.46,0,0,1-2.72-.87,3.4,3.4,0,0,1-1.32-2.66Z"/></g></g><g id="_06" data-name=" 06" class="cls-7"><g class="cls-7"><path class="cls-8" d="M746,365.71a8.55,8.55,0,0,1,.8,4,9.55,9.55,0,0,1-.73,4,3.51,3.51,0,0,1-3.42,2.27,3.42,3.42,0,0,1-3.18-1.85,8.56,8.56,0,0,1-.87-4.17,10.29,10.29,0,0,1,.52-3.48,3.58,3.58,0,0,1,3.54-2.71A3.53,3.53,0,0,1,746,365.71Zm-1.5,7.92a7.41,7.41,0,0,0,.69-3.83,9.5,9.5,0,0,0-.5-3.33,1.9,1.9,0,0,0-1.94-1.31,2,2,0,0,0-1.93,1.24,8.55,8.55,0,0,0-.61,3.66,9,9,0,0,0,.39,2.92,2.13,2.13,0,0,0,3.9.65Z"/><path class="cls-8" d="M755.27,364.8a3.5,3.5,0,0,1,.78,2.13h-1.48a2.71,2.71,0,0,0-.42-1.11,1.87,1.87,0,0,0-1.63-.74,2.28,2.28,0,0,0-2,1.15,6.76,6.76,0,0,0-.82,3.32,3.28,3.28,0,0,1,1.3-1.13,3.71,3.71,0,0,1,1.59-.33,3.9,3.9,0,0,1,2.61,1,3.56,3.56,0,0,1,1.11,2.85,4.31,4.31,0,0,1-1.06,2.87,3.71,3.71,0,0,1-3,1.25,3.88,3.88,0,0,1-2.88-1.27c-.81-.84-1.21-2.26-1.21-4.26a11.45,11.45,0,0,1,.54-3.76q1-3,3.79-3A3.3,3.3,0,0,1,755.27,364.8Zm-1.12,9.09a3.09,3.09,0,0,0,.58-1.88,3.18,3.18,0,0,0-.52-1.73,2.05,2.05,0,0,0-1.9-.83,2.46,2.46,0,0,0-1.69.64,2.4,2.4,0,0,0-.73,1.92,2.8,2.8,0,0,0,.66,1.9,2.29,2.29,0,0,0,1.83.77A2.05,2.05,0,0,0,754.15,373.89Z"/></g></g><g id="_07" data-name=" 07" class="cls-7"><g class="cls-7"><path class="cls-8" d="M698,382.86a8.89,8.89,0,0,1,.85,4.26,10.29,10.29,0,0,1-.77,4.25,3.74,3.74,0,0,1-3.62,2.4,3.6,3.6,0,0,1-3.37-2,8.92,8.92,0,0,1-.93-4.41,10.87,10.87,0,0,1,.56-3.68,3.79,3.79,0,0,1,3.75-2.87A3.72,3.72,0,0,1,698,382.86Zm-1.59,8.38a7.83,7.83,0,0,0,.73-4.06,9.87,9.87,0,0,0-.53-3.53,2,2,0,0,0-2.05-1.38,2.14,2.14,0,0,0-2,1.31,8.94,8.94,0,0,0-.65,3.87,9.68,9.68,0,0,0,.41,3.1,2.25,2.25,0,0,0,4.13.69Z"/><path class="cls-8" d="M709,381.06v1.38a14,14,0,0,0-1.62,2,21.39,21.39,0,0,0-1.78,3.15,22.15,22.15,0,0,0-1.16,3c-.17.58-.39,1.51-.66,2.8H702a21.59,21.59,0,0,1,2.64-7.17,22.39,22.39,0,0,1,2.53-3.61h-7v-1.59Z"/></g></g><g id="_08" data-name=" 08" class="cls-7"><g class="cls-7"><path class="cls-8" d="M650.84,382.86a9,9,0,0,1,.85,4.26,10.29,10.29,0,0,1-.77,4.25,3.74,3.74,0,0,1-3.62,2.4,3.6,3.6,0,0,1-3.37-2,8.92,8.92,0,0,1-.93-4.41,10.87,10.87,0,0,1,.56-3.68,3.79,3.79,0,0,1,3.75-2.87A3.72,3.72,0,0,1,650.84,382.86Zm-1.59,8.38a7.83,7.83,0,0,0,.73-4.06,10.1,10.1,0,0,0-.53-3.53,2,2,0,0,0-2.05-1.38,2.17,2.17,0,0,0-2,1.31,9.12,9.12,0,0,0-.64,3.87,9.68,9.68,0,0,0,.41,3.1,2.25,2.25,0,0,0,4.13.69Z"/><path class="cls-8" d="M654.16,386.07a2.51,2.51,0,0,1-.69-1.83,3.28,3.28,0,0,1,1-2.42,3.94,3.94,0,0,1,2.89-1,4,4,0,0,1,2.83.95,3,3,0,0,1,1,2.23,2.91,2.91,0,0,1-.6,1.91,3.84,3.84,0,0,1-1,.81,4.05,4.05,0,0,1,1.23.82,3.18,3.18,0,0,1,.84,2.29,3.88,3.88,0,0,1-1.12,2.82,4.16,4.16,0,0,1-3.15,1.15,4.85,4.85,0,0,1-3.11-1A3.44,3.44,0,0,1,653,389.9a3.32,3.32,0,0,1,.55-1.93,3.43,3.43,0,0,1,1.61-1.25A3.09,3.09,0,0,1,654.16,386.07Zm5.11,5.69A2.17,2.17,0,0,0,660,390a2.29,2.29,0,0,0-.75-1.86,2.84,2.84,0,0,0-1.91-.63,2.65,2.65,0,0,0-1.85.64,2.3,2.3,0,0,0-.72,1.79,2.4,2.4,0,0,0,.66,1.7,2.59,2.59,0,0,0,2,.72A2.83,2.83,0,0,0,659.27,391.76Zm-.3-6.23a1.86,1.86,0,0,0,0-2.69,2.29,2.29,0,0,0-1.71-.59,2.08,2.08,0,0,0-1.65.59,2.05,2.05,0,0,0-.51,1.38,1.66,1.66,0,0,0,.66,1.4,2.52,2.52,0,0,0,1.55.5A2.2,2.2,0,0,0,659,385.53Z"/></g></g><g id="_09" data-name=" 09" class="cls-7"><g class="cls-7"><path class="cls-8" d="M606.6,382.44a8.55,8.55,0,0,1,.8,4,9.71,9.71,0,0,1-.73,4,3.51,3.51,0,0,1-3.42,2.27,3.42,3.42,0,0,1-3.18-1.85,8.44,8.44,0,0,1-.88-4.17,10.27,10.27,0,0,1,.53-3.48,3.58,3.58,0,0,1,3.54-2.71A3.53,3.53,0,0,1,606.6,382.44Zm-1.51,7.92a7.39,7.39,0,0,0,.7-3.83,9.5,9.5,0,0,0-.5-3.33,1.9,1.9,0,0,0-1.94-1.31,2,2,0,0,0-1.93,1.24,8.53,8.53,0,0,0-.62,3.66,8.7,8.7,0,0,0,.4,2.92,2.12,2.12,0,0,0,3.89.65Z"/><path class="cls-8" d="M610.38,389.55a1.88,1.88,0,0,0,1,1.71,2.07,2.07,0,0,0,1,.25,2.35,2.35,0,0,0,1.83-.89,7.43,7.43,0,0,0,1.07-3.63A2.79,2.79,0,0,1,614,388.1a4,4,0,0,1-1.58.32,3.57,3.57,0,0,1-2.72-1.07,3.89,3.89,0,0,1-1-2.75,4.41,4.41,0,0,1,1-2.85,3.54,3.54,0,0,1,2.91-1.22,3.58,3.58,0,0,1,3.59,2.34,8.11,8.11,0,0,1,.55,3.21,10.53,10.53,0,0,1-.66,3.87,3.78,3.78,0,0,1-3.68,2.8,3.55,3.55,0,0,1-2.65-.91,3.14,3.14,0,0,1-.91-2.29Zm3.88-3a2.48,2.48,0,0,0,.74-2,2.61,2.61,0,0,0-.66-2,2.3,2.3,0,0,0-1.68-.64,2.19,2.19,0,0,0-1.74.73,2.86,2.86,0,0,0-.64,2,2.8,2.8,0,0,0,.56,1.85,2.23,2.23,0,0,0,1.8.68A2.54,2.54,0,0,0,614.26,386.53Z"/></g></g><g id="_10" data-name=" 10" class="cls-7"><g class="cls-7"><path class="cls-8" d="M551.75,384.52v-1.21a6.64,6.64,0,0,0,2.39-.56,2.75,2.75,0,0,0,1-1.85h1.25v12.53h-1.69v-8.91Z"/><path class="cls-8" d="M568.44,382.86a9,9,0,0,1,.84,4.26,10.3,10.3,0,0,1-.76,4.25,3.75,3.75,0,0,1-3.62,2.4,3.63,3.63,0,0,1-3.38-2,9,9,0,0,1-.92-4.41,11.14,11.14,0,0,1,.55-3.68,3.81,3.81,0,0,1,3.76-2.87A3.73,3.73,0,0,1,568.44,382.86Zm-1.59,8.38a7.94,7.94,0,0,0,.73-4.06,10.1,10.1,0,0,0-.53-3.53,2,2,0,0,0-2-1.38,2.16,2.16,0,0,0-2,1.31,9.12,9.12,0,0,0-.64,3.87,9.41,9.41,0,0,0,.41,3.1,2.25,2.25,0,0,0,4.13.69Z"/></g></g><g id="_14" data-name=" 14" class="cls-7"><g class="cls-7"><path class="cls-8" d="M691.69,336.35v-1.22a6.41,6.41,0,0,0,2.39-.55,2.71,2.71,0,0,0,1-1.85h1.25v12.53h-1.68v-8.91Z"/><path class="cls-8" d="M706,345.26v-3.08h-5.52v-1.54l5.76-8h1.34v8.16h1.85v1.38h-1.85v3.08Zm0-4.46v-5.71l-4,5.71Z"/></g></g><g id="_13" data-name=" 13" class="cls-7"><g class="cls-7"><path class="cls-8" d="M644.36,336.35v-1.22a6.47,6.47,0,0,0,2.39-.55,2.75,2.75,0,0,0,1-1.85H649v12.53h-1.69v-8.91Z"/><path class="cls-8" d="M654.09,344.38a4.58,4.58,0,0,1-1-3h1.65a4.15,4.15,0,0,0,.46,1.78,2.4,2.4,0,0,0,2.22,1,2.91,2.91,0,0,0,2-.67,2.19,2.19,0,0,0,.75-1.72,2,2,0,0,0-.79-1.82,4.08,4.08,0,0,0-2.21-.52h-.65v-1.4l.41,0h.36a3.42,3.42,0,0,0,1.46-.28,1.79,1.79,0,0,0,1-1.76,1.7,1.7,0,0,0-.67-1.45,2.47,2.47,0,0,0-1.55-.51,2.3,2.3,0,0,0-2.19,1,3.72,3.72,0,0,0-.38,1.65H653.4a4.72,4.72,0,0,1,.56-2.39,3.54,3.54,0,0,1,3.4-1.75,4.62,4.62,0,0,1,3,.85A3,3,0,0,1,661.4,336a2.76,2.76,0,0,1-.63,1.88,2.61,2.61,0,0,1-1,.7,2.71,2.71,0,0,1,1.55,1.05,3.19,3.19,0,0,1,.56,1.9,3.9,3.9,0,0,1-1.19,2.94,4.69,4.69,0,0,1-3.36,1.13A4,4,0,0,1,654.09,344.38Z"/></g></g><g id="_12" data-name=" 12" class="cls-7"><g class="cls-7"><path class="cls-8" d="M600.23,336.35v-1.22a6.47,6.47,0,0,0,2.39-.55,2.75,2.75,0,0,0,1-1.85h1.25v12.53h-1.69v-8.91Z"/><path class="cls-8" d="M609.75,342.43a5.49,5.49,0,0,1,2.28-2.19l1.69-1a7.7,7.7,0,0,0,1.59-1.13,2.46,2.46,0,0,0,.06-3.42,2.39,2.39,0,0,0-1.75-.65,2.28,2.28,0,0,0-2.25,1.24,4.25,4.25,0,0,0-.37,1.83h-1.61a5.62,5.62,0,0,1,.61-2.68,3.79,3.79,0,0,1,3.62-1.83,3.73,3.73,0,0,1,4.16,3.77,3.51,3.51,0,0,1-1.06,2.58,10.6,10.6,0,0,1-2.21,1.52l-1.2.66a7.27,7.27,0,0,0-1.35.91,3.24,3.24,0,0,0-1.11,1.7h6.87v1.49h-8.64A7.36,7.36,0,0,1,609.75,342.43Z"/></g></g><g id="_11" data-name=" 11" class="cls-7"><g class="cls-7"><path class="cls-8" d="M552.24,335.84V334.7a6.13,6.13,0,0,0,2.26-.53,2.63,2.63,0,0,0,1-1.75h1.18v11.84H555v-8.42Z"/><path class="cls-8" d="M560.44,335.84V334.7a6.13,6.13,0,0,0,2.26-.53,2.63,2.63,0,0,0,.95-1.75h1.18v11.84h-1.59v-8.42Z"/></g></g><g id="MINISO" class="cls-7"><g class="cls-7"><path class="cls-8" d="M296.4,187.39h3.48L305,202.55l5.12-15.16h3.46v17.93h-2.32V194.74c0-.37,0-1,0-1.82s0-1.76,0-2.73l-5.12,15.13h-2.41l-5.17-15.13v.55c0,.44,0,1.11,0,2s0,1.56,0,2v10.58H296.4Z"/><path class="cls-8" d="M317.83,187.39h2.46v17.93h-2.46Z"/><path class="cls-8" d="M324.23,187.39h2.86L336,201.88V187.39h2.32v17.93h-2.73l-9.07-14.47v14.47h-2.32Z"/><path class="cls-8" d="M342.83,187.39h2.46v17.93h-2.46Z"/><path class="cls-8" d="M350.82,199.53a5,5,0,0,0,.69,2.48c.78,1.19,2.14,1.78,4.1,1.78a7,7,0,0,0,2.4-.39,2.74,2.74,0,0,0,2.1-2.71,2.36,2.36,0,0,0-.89-2.08,8.92,8.92,0,0,0-2.82-1.07l-2.35-.55a10.25,10.25,0,0,1-3.26-1.18,3.78,3.78,0,0,1-1.66-3.36,5.2,5.2,0,0,1,1.63-4,6.38,6.38,0,0,1,4.61-1.55A7.82,7.82,0,0,1,360,188.3a4.94,4.94,0,0,1,1.92,4.35h-2.28a4.66,4.66,0,0,0-.75-2.21,4.25,4.25,0,0,0-3.62-1.4,4.08,4.08,0,0,0-3,.9,2.88,2.88,0,0,0-.9,2.1A2.06,2.06,0,0,0,352.5,194a15.53,15.53,0,0,0,3.16,1l2.44.58a7.28,7.28,0,0,1,2.72,1.13,4.32,4.32,0,0,1,1.65,3.65,4.57,4.57,0,0,1-2.11,4.26,9.22,9.22,0,0,1-4.91,1.29,7.29,7.29,0,0,1-5.11-1.71,5.88,5.88,0,0,1-1.81-4.61Z"/><path class="cls-8" d="M380.67,190a9.89,9.89,0,0,1,1.79,6.09,10.65,10.65,0,0,1-2,6.68,9,9,0,0,1-13.33.39,10.32,10.32,0,0,1-2.11-6.67,10.61,10.61,0,0,1,1.8-6.22,7.85,7.85,0,0,1,6.86-3.32Q378.4,186.9,380.67,190Zm-2.14,11.43a9.76,9.76,0,0,0,1.44-5.29,7.54,7.54,0,0,0-1.66-5.1,5.63,5.63,0,0,0-4.52-1.93,5.89,5.89,0,0,0-4.54,1.91,8.09,8.09,0,0,0-1.76,5.64,8.23,8.23,0,0,0,1.51,5q1.5,2,4.89,2A5,5,0,0,0,378.53,201.38Z"/></g></g><g id="_7-11" data-name=" 7-11" class="cls-7"><g class="cls-7"><path class="cls-8" d="M173,188.13v1.92a20,20,0,0,0-2.24,2.84,28.58,28.58,0,0,0-2.48,4.37,31,31,0,0,0-1.61,4.17c-.23.8-.54,2.1-.91,3.89h-2.43a29.73,29.73,0,0,1,3.66-10,31.78,31.78,0,0,1,3.52-5h-9.67v-2.21Z"/><path class="cls-8" d="M174.84,197.23H181v2.25h-6.13Z"/><path class="cls-8" d="M184.52,192.94v-1.68a9,9,0,0,0,3.32-.78,3.81,3.81,0,0,0,1.41-2.57H191v17.41h-2.34V192.94Z"/><path class="cls-8" d="M196.58,192.94v-1.68a9.15,9.15,0,0,0,3.33-.78,3.85,3.85,0,0,0,1.4-2.57H203v17.41H200.7V192.94Z"/></g></g><polygon class="cls-9" points="1064.71 434.24 1002.07 434.24 1002.07 20.77 959.55 0 959.55 434.24 0 434.24 19.72 482.71 959.55 482.71 959.55 541.68 1002.07 518.58 1002.07 482.71 1045.88 482.71 1064.71 434.24"/><g id="育才街" class="cls-7"><g class="cls-7"><path class="cls-8" d="M496.54,454.84c-.33.45-.67.88-1,1.3h8.78v1.22H500a31.84,31.84,0,0,1,3.87,3.42l-1.08.76a14.66,14.66,0,0,0-1.35-1.41c-4.14.27-8,.49-11.7.63l-.24-1.08a9.16,9.16,0,0,0,3.35-2.32h-4.77v-1.22H494c.4-.52.81-1.08,1.24-1.68Zm5.07,14.53c0,1.06-.59,1.6-1.76,1.6h-2l-.31-1.18c.69,0,1.32,0,1.91,0s.87-.31.87-.92v-1.48c-2.45.44-5.06.8-7.84,1.1l-.3-1.22c2.81-.22,5.53-.54,8.14-1v-3.48h-8.21V464c1.62.12,2.89.23,3.79.34s1.82.23,3.08.41l-.43,1c-1.11-.18-2.23-.34-3.33-.47s-2.05-.23-3.11-.3v.19a8.86,8.86,0,0,1-2.11,6l-1-.92a7.25,7.25,0,0,0,1.82-5v-3.56h10.76Zm-2.7-11.45.9-.56h-5.33a15,15,0,0,1-2.64,2.29c4-.22,6.84-.38,8.53-.51C499.9,458.73,499.42,458.32,498.91,457.92Z"/><path class="cls-8" d="M521.56,470.9l-.29-1.26c.93,0,1.82.07,2.66.07.51,0,.78-.3.78-.9v-9.72h-.6a20.47,20.47,0,0,1-8.91,9.25l-.68-1.09a19.52,19.52,0,0,0,8.3-8.16h-8v-1.24h9.89v-3.3H526v3.3h4.52v1.24H526v10.05c0,1.17-.56,1.76-1.64,1.76Z"/><path class="cls-8" d="M545.39,454.91a13.86,13.86,0,0,1-4,5.4l-.38-1.22a12,12,0,0,0,3.24-4.68Zm.39,4.67a13.31,13.31,0,0,1-1.49,2.75V471h-1.17v-7.22a15.76,15.76,0,0,1-1.55,1.5l-.38-1.19a13.49,13.49,0,0,0,3.55-5Zm2.74,4.77v-1.78h1.24v1.78h2.61v1.15h-2.61V468c1.07-.18,2.11-.4,3.14-.61v1.15c-2.24.54-4.63,1-7.21,1.33l-.3-1.24c1.06-.11,2.1-.25,3.13-.42V465.5H546v-1.15Zm0-7.2v-2.38h1.24v2.38h2.5v1.15h-2.5v2.43h2.88V460h5.1v1.19h-1.71v8.12c0,1.12-.49,1.68-1.44,1.68h-2.13l-.27-1.21q1,.09,2,.09c.4,0,.6-.29.6-.86v-7.82h-2.06v.74h-7v-1.15h2.81V458.3h-2.45v-1.15Zm8.89-1.39v1.17H553v-1.17Z"/></g></g><g id="Group_790" data-name="Group 790"><g id="Group_789" data-name="Group 789"><g id="Group_788" data-name="Group 788"><path id="Path_6052" data-name="Path 6052" class="cls-8" d="M989.57,206.77v1.56H972.13v-1.56Z"/><path id="Path_6053" data-name="Path 6053" class="cls-8" d="M988.47,230.8v9H987v-1.09H981.5v6.22H980v-6.22h-5.49v1.19h-1.4V230.8H980v-3.42h1.48v3.42ZM980,237.29V232.2h-5.49v5.09Zm7,0V232.2H981.5v5.09Z"/><path id="Path_6054" data-name="Path 6054" class="cls-8" d="M977.13,260.08a20.72,20.72,0,0,1-1.67,2.84v10.43h-1.33v-8.7a21.21,21.21,0,0,1-1.69,1.73,10,10,0,0,0-.84-1.27,16.76,16.76,0,0,0,4.26-5.45Zm-.54-3.78a16.85,16.85,0,0,1-3.92,4.41,8,8,0,0,0-.81-1,13.49,13.49,0,0,0,3.42-3.84ZM984.37,271c-2.8.38-5.73.73-7.8,1l-.18-1.33c.93-.1,2.06-.21,3.33-.36v-3h-2.81V266h2.81v-2.36h1.36V266h2.78v1.25h-2.78v2.83l3.27-.4Zm-4.63-11.48H977.2v-1.23h2.54v-2.42h1.34v2.42h2.57v1.23h-2.57V262H984v1.27h-7.2V262h2.94Zm9.83,3.88h-1.79v8.25c0,.81-.15,1.25-.71,1.46a8.21,8.21,0,0,1-2.88.27,5,5,0,0,0-.42-1.42c1.06,0,2,0,2.25,0s.36-.08.36-.35v-8.24h-2V262h5.24Zm-.25-5.13H984.5v-1.29h4.82Z"/></g></g></g><path id="Path_6055" data-name="Path 6055" class="cls-6" d="M543.94,194.31v16.48h-7.16v21.35h45.56V194.31Z"/><g id="_23" data-name=" 23" class="cls-7"><g class="cls-7"><path class="cls-8" d="M550.38,215.48a5.41,5.41,0,0,1,2.28-2.18l1.69-1a7.89,7.89,0,0,0,1.59-1.13,2.3,2.3,0,0,0,.72-1.67,2.34,2.34,0,0,0-.66-1.75,2.41,2.41,0,0,0-1.76-.64,2.3,2.3,0,0,0-2.25,1.23,4.57,4.57,0,0,0-.37,1.83H550a5.54,5.54,0,0,1,.6-2.68,3.81,3.81,0,0,1,3.63-1.83,3.74,3.74,0,0,1,4.16,3.77,3.59,3.59,0,0,1-1.06,2.59,10.64,10.64,0,0,1-2.21,1.51l-1.2.67a7.79,7.79,0,0,0-1.36.9,3.41,3.41,0,0,0-1.11,1.7h6.88v1.49h-8.64A7.41,7.41,0,0,1,550.38,215.48Z"/><path class="cls-8" d="M560.59,217.43a4.55,4.55,0,0,1-1-3h1.65a4,4,0,0,0,.46,1.77,2.41,2.41,0,0,0,2.22,1,2.93,2.93,0,0,0,2-.67,2.19,2.19,0,0,0,.76-1.73,2,2,0,0,0-.8-1.81,4,4,0,0,0-2.21-.52H563v-1.39l.42,0h.36a3.28,3.28,0,0,0,1.46-.28,1.8,1.8,0,0,0,1-1.76,1.7,1.7,0,0,0-.67-1.45,2.52,2.52,0,0,0-1.56-.51,2.28,2.28,0,0,0-2.18,1.06,3.52,3.52,0,0,0-.38,1.65H559.9a4.77,4.77,0,0,1,.56-2.39,3.56,3.56,0,0,1,3.41-1.76,4.64,4.64,0,0,1,3,.86,3,3,0,0,1,1,2.48,2.8,2.8,0,0,1-.62,1.88,2.61,2.61,0,0,1-1,.7,2.81,2.81,0,0,1,1.55,1.06,3.16,3.16,0,0,1,.55,1.9,3.86,3.86,0,0,1-1.18,2.93,4.66,4.66,0,0,1-3.37,1.14A4,4,0,0,1,560.59,217.43Z"/></g></g></g></g></svg>