<svg xmlns="http://www.w3.org/2000/svg" width="37" height="37" viewBox="0 0 37 37">
  <g id="Group_818" data-name="Group 818" transform="translate(-1617 -32)">
    <g id="Group_657" data-name="Group 657" transform="translate(1617 32)">
      <path id="Path_4393" data-name="Path 4393" d="M18.5,0A18.5,18.5,0,1,1,0,18.5,18.5,18.5,0,0,1,18.5,0Z" fill="#552e23"/>
    </g>
    <g id="instagram" transform="translate(1627.113 42.732)">
      <path id="Path_319" data-name="Path 319" d="M16.468,4.722a5.869,5.869,0,0,0-.373-1.949,4.115,4.115,0,0,0-2.35-2.35A5.884,5.884,0,0,0,11.8.05C10.936.009,10.663,0,8.482,0S6.028.009,5.172.047A5.871,5.871,0,0,0,3.223.42,3.919,3.919,0,0,0,1.8,1.349,3.955,3.955,0,0,0,.873,2.771,5.885,5.885,0,0,0,.5,4.719c-.041.86-.05,1.133-.05,3.314s.009,2.454.047,3.31A5.869,5.869,0,0,0,.87,13.292a4.114,4.114,0,0,0,2.35,2.35,5.885,5.885,0,0,0,1.949.373c.857.038,1.13.047,3.31.047s2.454-.009,3.31-.047a5.868,5.868,0,0,0,1.949-.373,4.108,4.108,0,0,0,2.35-2.35,5.889,5.889,0,0,0,.373-1.949c.038-.857.047-1.13.047-3.31S16.505,5.579,16.468,4.722ZM15.021,11.28a4.4,4.4,0,0,1-.276,1.49A2.665,2.665,0,0,1,13.22,14.3a4.418,4.418,0,0,1-1.49.276c-.847.038-1.1.047-3.244.047s-2.4-.009-3.245-.047A4.4,4.4,0,0,1,3.75,14.3a2.472,2.472,0,0,1-.922-.6,2.5,2.5,0,0,1-.6-.922,4.419,4.419,0,0,1-.276-1.49c-.038-.847-.047-1.1-.047-3.245s.009-2.4.047-3.244A4.4,4.4,0,0,1,2.228,3.3a2.441,2.441,0,0,1,.6-.923,2.493,2.493,0,0,1,.922-.6,4.421,4.421,0,0,1,1.49-.276c.847-.038,1.1-.047,3.244-.047s2.4.009,3.245.047a4.4,4.4,0,0,1,1.49.276,2.47,2.47,0,0,1,.922.6,2.5,2.5,0,0,1,.6.923,4.421,4.421,0,0,1,.276,1.49c.038.847.047,1.1.047,3.244S15.059,10.433,15.021,11.28Zm0,0" transform="translate(-0.449 0)" fill="#fff"/>
      <path id="Path_320" data-name="Path 320" d="M129.075,124.5a4.126,4.126,0,1,0,4.126,4.126A4.127,4.127,0,0,0,129.075,124.5Zm0,6.8a2.677,2.677,0,1,1,2.677-2.677A2.677,2.677,0,0,1,129.075,131.3Zm0,0" transform="translate(-121.043 -120.593)" fill="#fff"/>
      <path id="Path_321" data-name="Path 321" d="M364.376,89.565a.963.963,0,1,1-.963-.963A.963.963,0,0,1,364.376,89.565Zm0,0" transform="translate(-351.09 -85.821)" fill="#fff"/>
    </g>
  </g>
</svg>
