<svg id="line" xmlns="http://www.w3.org/2000/svg" width="32.953" height="31.527" viewBox="0 0 32.953 31.527">
  <path id="Path_264" data-name="Path 264" d="M104.118,153.756h-2.234v-5.677c0-.421-.387-.7-.962-.7s-.962.283-.962.7V154.8a.782.782,0,0,0,.879.713h3.278c.4,0,.693-.37.693-.879S104.526,153.756,104.118,153.756Zm0,0" transform="translate(-93.527 -137.89)" fill="#fff"/>
  <path id="Path_265" data-name="Path 265" d="M183.688,147.375c-.575,0-.962.283-.962.7V154.8c0,.42.4.713.962.713s.962-.3.962-.713v-6.722C184.65,147.658,184.263,147.375,183.688,147.375Zm0,0" transform="translate(-170.966 -137.89)" fill="#fff"/>
  <path id="Path_266" data-name="Path 266" d="M232.523,147.375c-.575,0-.962.283-.962.7v2.967l-1.45-2.8c-.354-.674-.636-.868-1.259-.868-.575,0-.962.287-.962.714V154.8c0,.42.4.713.962.713s.962-.3.962-.713v-3l1.68,3.141a1.088,1.088,0,0,0,1.03.574c.557,0,.962-.3.962-.713v-6.722C233.485,147.658,233.1,147.375,232.523,147.375Zm0,0" transform="translate(-213.223 -137.89)" fill="#fff"/>
  <path id="Path_267" data-name="Path 267" d="M334.654,149.133c.414,0,.714-.374.714-.889a.776.776,0,0,0-.714-.869h-3.681a.782.782,0,0,0-.879.714V154.8a.782.782,0,0,0,.879.713h3.681a.776.776,0,0,0,.714-.869c0-.515-.3-.889-.714-.889h-2.637v-1.5H333.3a.751.751,0,0,0,.713-.807.76.76,0,0,0-.713-.827h-1.282v-1.489Zm0,0" transform="translate(-308.848 -137.89)" fill="#fff"/>
  <path id="Path_268" data-name="Path 268" d="M28.053,3.9A18.352,18.352,0,0,0,16.477,0,18.352,18.352,0,0,0,4.9,3.9,12.4,12.4,0,0,0,0,13.555a12.315,12.315,0,0,0,4.412,9.237A17.81,17.81,0,0,0,14.1,26.967v3.595a.965.965,0,0,0,.965.965c1.67,0,6.19-2.049,10.007-4.99A24.522,24.522,0,0,0,30.5,20.93a13.143,13.143,0,0,0,2.45-7.376A12.4,12.4,0,0,0,28.053,3.9Zm-4.158,21.1a32.252,32.252,0,0,1-5.527,3.419,17.832,17.832,0,0,1-2.337.956V26.09a.965.965,0,0,0-.895-.963C7.732,24.585,1.931,19.5,1.931,13.555c0-6.409,6.525-11.624,14.546-11.624S31.022,7.145,31.022,13.555C31.022,18.482,27.146,22.5,23.895,25.008Zm0,0" fill="#fff"/>
</svg>
