<svg xmlns="http://www.w3.org/2000/svg" width="29.506" height="29.506" viewBox="0 0 29.506 29.506">
  <path id="Path_4356" data-name="Path 4356" d="M1322.834,1930.458v26.212a1.649,1.649,0,0,1-.46,1.154,1.557,1.557,0,0,1-1.185.494h-7.508v-11.461h3.819l.594-4.413h-4.413v-2.833a2.441,2.441,0,0,1,.4-1.581,2.278,2.278,0,0,1,1.779-.593h2.369v-4.018q-1.383-.132-3.424-.13a5.353,5.353,0,0,0-5.73,5.86v3.294h-3.82v4.413h3.82v11.461h-14.1a1.553,1.553,0,0,1-1.185-.494,1.638,1.638,0,0,1-.461-1.154v-26.212a1.578,1.578,0,0,1,1.646-1.646h26.215a1.628,1.628,0,0,1,1.151.46A1.542,1.542,0,0,1,1322.834,1930.458Z" transform="translate(-1293.328 -1928.813)" fill="#fff"/>
</svg>
