<svg xmlns="http://www.w3.org/2000/svg" width="22.52" height="23.516" viewBox="0 0 22.52 23.516">
  <g id="market-store" transform="translate(-10.265)">
    <path id="Path_4430" data-name="Path 4430" d="M31.662,197.488h-.477V185.735h0a2.8,2.8,0,0,1-1.6-.514,2.789,2.789,0,0,1-1.615.514,2.755,2.755,0,0,1-.358-.029v8.743a.9.9,0,0,1-.9.9H23.458v-2.476l1.145,1.911a.722.722,0,1,0,1.238-.742l-2.3-3.841a.714.714,0,0,0-.66-.341c-.017,0-2.666,0-2.683,0a.716.716,0,0,0-.67.342l-2.3,3.841a.722.722,0,1,0,1.239.742l1.152-1.923v2.488H16.362a.9.9,0,0,1-.9-.9v-8.743a2.752,2.752,0,0,1-.358.029,2.84,2.84,0,0,1-.551-.055,2.79,2.79,0,0,1-1.064-.459,2.8,2.8,0,0,1-1.6.514h0v11.753h-.477a1.131,1.131,0,0,0,0,2.262H31.662a1.131,1.131,0,1,0,0-2.262Z" transform="translate(-0.009 -176.234)" fill="#fff"/>
    <path id="Path_4431" data-name="Path 4431" d="M212.818,197.226a1.737,1.737,0,1,0,1.5,1.721A1.624,1.624,0,0,0,212.818,197.226Z" transform="translate(-191.294 -187.656)" fill="#fff"/>
    <path id="Path_4432" data-name="Path 4432" d="M11.413,8.227a1.608,1.608,0,0,0,2-1.081l.085-.283A1.6,1.6,0,0,0,16.668,7l.039-.2a1.606,1.606,0,0,0,1.441,1.483c.054.005.108.008.162.008a1.609,1.609,0,0,0,1.6-1.449l.012-.119a1.6,1.6,0,0,0,3.209,0l.012.119a1.609,1.609,0,0,0,1.6,1.449c.054,0,.107,0,.162-.008A1.605,1.605,0,0,0,26.342,6.8l.039.2a1.6,1.6,0,0,0,3.169-.137l.085.283a1.609,1.609,0,0,0,1.54,1.148,1.626,1.626,0,0,0,.461-.067,1.609,1.609,0,0,0,1.081-2L31.265,1.366A1.914,1.914,0,0,0,29.431,0H13.618a1.914,1.914,0,0,0-1.834,1.366L10.332,6.225A1.609,1.609,0,0,0,11.413,8.227Z" fill="#fff"/>
  </g>
</svg>
