<svg id="instagram" xmlns="http://www.w3.org/2000/svg" width="31.521" height="31.527" viewBox="0 0 31.521 31.527">
  <path id="Path_319" data-name="Path 319" d="M31.89,9.269a11.52,11.52,0,0,0-.733-3.825A8.076,8.076,0,0,0,26.544.831,11.55,11.55,0,0,0,22.72.1C21.032.019,20.5,0,16.216,0S11.4.019,9.718.092A11.523,11.523,0,0,0,5.894.825,7.693,7.693,0,0,0,3.1,2.648a7.762,7.762,0,0,0-1.817,2.79A11.551,11.551,0,0,0,.548,9.263c-.08,1.688-.1,2.223-.1,6.5s.019,4.816.092,6.5a11.519,11.519,0,0,0,.733,3.825A8.075,8.075,0,0,0,5.888,30.7a11.551,11.551,0,0,0,3.825.733c1.681.074,2.217.092,6.5.092s4.816-.018,6.5-.092a11.517,11.517,0,0,0,3.825-.733,8.064,8.064,0,0,0,4.613-4.613,11.559,11.559,0,0,0,.733-3.825c.074-1.681.092-2.217.092-6.5S31.964,10.951,31.89,9.269ZM29.051,22.141a8.641,8.641,0,0,1-.542,2.925,5.23,5.23,0,0,1-2.993,2.993,8.672,8.672,0,0,1-2.925.542c-1.663.074-2.162.092-6.368.092s-4.712-.018-6.368-.092a8.637,8.637,0,0,1-2.925-.542,4.851,4.851,0,0,1-1.811-1.176,4.9,4.9,0,0,1-1.176-1.811A8.673,8.673,0,0,1,3.4,22.148c-.074-1.663-.092-2.162-.092-6.368s.018-4.712.092-6.368a8.637,8.637,0,0,1,.542-2.925A4.792,4.792,0,0,1,5.124,4.675,4.894,4.894,0,0,1,6.935,3.5,8.678,8.678,0,0,1,9.86,2.956c1.663-.074,2.162-.092,6.368-.092s4.712.019,6.368.092a8.641,8.641,0,0,1,2.925.542,4.848,4.848,0,0,1,1.811,1.176,4.9,4.9,0,0,1,1.176,1.811,8.677,8.677,0,0,1,.542,2.925c.074,1.663.092,2.162.092,6.368S29.125,20.478,29.051,22.141Zm0,0" transform="translate(-0.449 0)" fill="#fff"/>
  <path id="Path_320" data-name="Path 320" d="M133.048,124.5a8.1,8.1,0,1,0,8.1,8.1A8.1,8.1,0,0,0,133.048,124.5Zm0,13.353A5.254,5.254,0,1,1,138.3,132.6,5.254,5.254,0,0,1,133.048,137.853Zm0,0" transform="translate(-117.281 -116.832)" fill="#fff"/>
  <path id="Path_321" data-name="Path 321" d="M366.231,90.492A1.891,1.891,0,1,1,364.34,88.6,1.891,1.891,0,0,1,366.231,90.492Zm0,0" transform="translate(-340.154 -83.145)" fill="#fff"/>
</svg>
