<svg id="_002-telephone" data-name="002-telephone" xmlns="http://www.w3.org/2000/svg" width="22.19" height="22.191" viewBox="0 0 22.19 22.191">
  <g id="Group_713" data-name="Group 713" transform="translate(0 0)">
    <path id="Path_4384" data-name="Path 4384" d="M16.876,58.687a1.555,1.555,0,0,0-2.35,0c-.55.545-1.1,1.09-1.639,1.644a.324.324,0,0,1-.453.083c-.356-.194-.734-.351-1.076-.563a17.047,17.047,0,0,1-4.11-3.74,9.736,9.736,0,0,1-1.473-2.36.338.338,0,0,1,.083-.434c.55-.531,1.085-1.076,1.625-1.621a1.561,1.561,0,0,0,0-2.406c-.429-.434-.859-.859-1.288-1.293s-.882-.891-1.33-1.33a1.565,1.565,0,0,0-2.35,0c-.554.545-1.085,1.1-1.649,1.639a2.676,2.676,0,0,0-.84,1.806,7.65,7.65,0,0,0,.591,3.292,20.007,20.007,0,0,0,3.551,5.915,21.975,21.975,0,0,0,7.277,5.694,10.525,10.525,0,0,0,4.031,1.173,2.954,2.954,0,0,0,2.535-.965c.471-.526,1-1.007,1.5-1.51a1.571,1.571,0,0,0,.009-2.392Q18.2,60,16.876,58.687Z" transform="translate(-0.006 -44.007)" fill="#fff"/>
    <path id="Path_4385" data-name="Path 4385" d="M242.86,102.566l1.7-.291A7.648,7.648,0,0,0,238.094,96l-.24,1.713a5.911,5.911,0,0,1,5.006,4.853Z" transform="translate(-226.871 -91.567)" fill="#fff"/>
    <path id="Path_4386" data-name="Path 4386" d="M250.2,3.593A12.564,12.564,0,0,0,242.994,0l-.24,1.713a10.963,10.963,0,0,1,9.277,8.991l1.7-.291A12.656,12.656,0,0,0,250.2,3.593Z" transform="translate(-231.545)" fill="#fff"/>
  </g>
</svg>
