<svg xmlns="http://www.w3.org/2000/svg" width="37" height="37" viewBox="0 0 37 37">
  <g id="Group_817" data-name="Group 817" transform="translate(-1743 -32)">
    <g id="Group_660" data-name="Group 660" transform="translate(1742.777 32)">
      <circle id="Ellipse_81" data-name="Ellipse 81" cx="18.5" cy="18.5" r="18.5" transform="translate(0.223)" fill="#552e23"/>
    </g>
    <g id="line" transform="translate(1751.112 40.732)">
      <path id="Path_264" data-name="Path 264" d="M102.606,151.435h-1.421v-3.613c0-.268-.246-.448-.612-.448s-.612.18-.612.448V152.1a.5.5,0,0,0,.559.454h2.086c.256,0,.441-.235.441-.559S102.866,151.435,102.606,151.435Zm0,0" transform="translate(-95.867 -141.339)" fill="#fff"/>
      <path id="Path_265" data-name="Path 265" d="M183.338,147.375c-.366,0-.612.18-.612.448V152.1c0,.267.252.454.612.454s.612-.191.612-.454v-4.277C183.95,147.555,183.7,147.375,183.338,147.375Zm0,0" transform="translate(-175.243 -141.339)" fill="#fff"/>
      <path id="Path_266" data-name="Path 266" d="M230.839,147.375c-.366,0-.612.18-.612.448v1.888l-.923-1.783c-.225-.429-.4-.553-.8-.553-.366,0-.612.183-.612.454V152.1c0,.267.252.454.612.454s.612-.191.612-.454v-1.91l1.069,2a.693.693,0,0,0,.655.365c.355,0,.612-.191.612-.454v-4.277C231.451,147.555,231.2,147.375,230.839,147.375Zm0,0" transform="translate(-218.557 -141.339)" fill="#fff"/>
      <path id="Path_267" data-name="Path 267" d="M333,148.494c.263,0,.454-.238.454-.566a.494.494,0,0,0-.454-.553h-2.343a.5.5,0,0,0-.559.454V152.1a.5.5,0,0,0,.559.454H333a.494.494,0,0,0,.454-.553c0-.328-.191-.566-.454-.566h-1.678v-.954h.816a.478.478,0,0,0,.454-.513.483.483,0,0,0-.454-.527h-.816v-.948Zm0,0" transform="translate(-316.574 -141.339)" fill="#fff"/>
      <path id="Path_268" data-name="Path 268" d="M17.851,2.484A11.678,11.678,0,0,0,10.485,0,11.679,11.679,0,0,0,3.118,2.484,7.889,7.889,0,0,0,0,8.626,7.836,7.836,0,0,0,2.808,14.5a11.333,11.333,0,0,0,6.165,2.657v2.288a.614.614,0,0,0,.614.614c1.063,0,3.939-1.3,6.368-3.175a15.6,15.6,0,0,0,3.456-3.568A8.364,8.364,0,0,0,20.97,8.626,7.889,7.889,0,0,0,17.851,2.484Zm-2.646,13.43a20.524,20.524,0,0,1-3.517,2.176A11.347,11.347,0,0,1,10.2,18.7V16.6a.614.614,0,0,0-.569-.613c-4.712-.345-8.4-3.58-8.4-7.364,0-4.079,4.152-7.4,9.256-7.4s9.256,3.318,9.256,7.4C19.741,11.761,17.275,14.32,15.205,15.914Zm0,0" fill="#fff"/>
    </g>
  </g>
</svg>
