<svg id="Group_658" data-name="Group 658" xmlns="http://www.w3.org/2000/svg" width="37.491" height="37.491" viewBox="0 0 37.491 37.491">
  <path id="Path_4392" data-name="Path 4392" d="M18.746,0A18.746,18.746,0,1,1,0,18.746,18.746,18.746,0,0,1,18.746,0Z" transform="translate(0)" fill="#552e23"/>
  <path id="Path_4356" data-name="Path 4356" d="M1307.358,1929.6v12.464a.784.784,0,0,1-.219.549.74.74,0,0,1-.563.235h-3.57v-5.45h1.816l.282-2.1h-2.1v-1.347a1.16,1.16,0,0,1,.188-.751,1.083,1.083,0,0,1,.846-.282h1.127V1931q-.658-.063-1.628-.062a2.545,2.545,0,0,0-2.725,2.787v1.566H1299v2.1h1.816v5.45h-6.7a.738.738,0,0,1-.563-.235.779.779,0,0,1-.219-.549V1929.6a.751.751,0,0,1,.783-.782h12.465a.774.774,0,0,1,.547.219A.733.733,0,0,1,1307.358,1929.6Z" transform="translate(-1281.388 -1917.053)" fill="#fff"/>
</svg>
