<svg id="Group_1" data-name="Group 1" xmlns="http://www.w3.org/2000/svg" width="136.801" height="30.255" viewBox="0 0 136.801 30.255">
  <rect id="Rectangle_1" data-name="Rectangle 1" width="8.169" height="30.254" fill="#8e8e8f"/>
  <path id="Path_2" data-name="Path 2" d="M1255.511,7042.538h-17.1v-30.255h8.169v24.447h8.929Z" transform="translate(-1190.151 -7012.283)" fill="#8e8e8f" fill-rule="evenodd"/>
  <path id="Path_3" data-name="Path 3" d="M1275.805,7017.273l-13.078,19.683H1274v5.582h-15.814l-4.97-5.082,12.849-19.553h-9.816v-5.62h14.189Z" transform="translate(-1162.641 -7012.283)" fill="#8e8e8f" fill-rule="evenodd"/>
  <path id="Path_4" data-name="Path 4" d="M1244.815,7012.283H1230.23v30.255h7.885v-10.3h6.7l6.243-4.4V7016.82Z" transform="translate(-1205.364 -7012.283)" fill="#8e8e8f" fill-rule="evenodd"/>
  <path id="Path_5" data-name="Path 5" d="M1263.389,7012.283h-12.547l-5.9,30.255h8.175l.877-5.582h6.656l.933,5.582h8.164Z" transform="translate(-1178.01 -7012.283)" fill="#8e8e8f" fill-rule="evenodd"/>
  <path id="Path_6" data-name="Path 6" d="M1279.154,7012.283H1266.6l-5.891,30.255h8.169l.877-5.582h6.662l.933,5.582h8.169Z" transform="translate(-1148.713 -7012.283)" fill="#8e8e8f" fill-rule="evenodd"/>
  <path id="Path_7" data-name="Path 7" d="M1232.574,7018.193a3.964,3.964,0,1,1,3.968,3.956A3.959,3.959,0,0,1,1232.574,7018.193Z" transform="translate(-1201.007 -7008.651)" fill="#d6006c" fill-rule="evenodd"/>
  <path id="Path_8" data-name="Path 8" d="M1247.792,7018.193a3.954,3.954,0,1,1,3.96,3.956A3.955,3.955,0,0,1,1247.792,7018.193Z" transform="translate(-1172.717 -7008.651)" fill="#f38200" fill-rule="evenodd"/>
  <path id="Path_9" data-name="Path 9" d="M1263.6,7018.193a3.97,3.97,0,1,1,3.971,3.956A3.963,3.963,0,0,1,1263.6,7018.193Z" transform="translate(-1143.332 -7008.651)" fill="#0075c8" fill-rule="evenodd"/>
</svg>
