<svg xmlns="http://www.w3.org/2000/svg" width="138.718" height="31.421" viewBox="0 0 138.718 31.421">
  <path id="Exclusion_1" data-name="Exclusion 1" d="M120.871,30.421h-8.219L118.58,0H131.2l6.4,30.419h-8.219l-.938-5.61h-6.693l-.881,5.61Zm4.092-24.809a3.982,3.982,0,1,0,3.98,3.983A3.988,3.988,0,0,0,124.963,5.612ZM75.552,30.421H67.333L73.262,0H85.884l5.3,25.2-.075.115.127.13-.051-.244L104.024,5.652H94.162V0h14.263l5.4,5.017L100.676,24.81h11.332v5.609H96.1l-4.861-4.977,1.047,4.976H84.064l-.938-5.61h-6.7l-.879,5.61ZM79.494,5.612a3.982,3.982,0,1,0,3.981,3.983A3.987,3.987,0,0,0,79.494,5.612ZM65.748,30.42h-17.2V0h8.217V24.581h8.982v5.838Zm-32.814,0H25.007V0H39.685l6.281,4.56V15.644l-6.281,4.423H32.934V30.419Zm2.8-24.808a3.982,3.982,0,1,0,3.979,3.983A3.987,3.987,0,0,0,35.736,5.612ZM8.219,30.42H0V0H8.219V30.419Z" transform="translate(0.5 0.5)" fill="#fff" stroke="rgba(0,0,0,0)" stroke-miterlimit="10" stroke-width="1"/>
</svg>
