<svg xmlns="http://www.w3.org/2000/svg" width="315.391" height="109.483" viewBox="0 0 315.391 109.483">
  <g id="Group_794" data-name="Group 794" transform="translate(-254.139 -1087.104)">
    <g id="Group_793" data-name="Group 793" transform="translate(373.734 1165.121)">
      <path id="Path_6056" data-name="Path 6056" d="M589.223,1633.469H589.2l-.272.212h.027Z" transform="translate(-588.924 -1633.469)" fill="#474645"/>
    </g>
    <path id="Path_6057" data-name="Path 6057" d="M597.1,1416.805h-3.4l-.833.732H566.035l1.095-.961h-3.4l-1.095.961h-35.65l1.095-.961h-3.4l-1.6,1.407H524.2l-2.751,2.415H481.421l-3.526,3.077H476.68l-1.6,1.407h1.206l-11.444,9.987H463.7l-.785.689H430.73l12.114-10.676h.008l1.6-1.407h-1.2l3.576-3.077H347.124l-2.618,2.3-.888.779h-1.836l-1.6,1.407h1.837l-8.4,7.37-2.981,2.616H329.5l-1.6,1.407h1.133l-11.688,10.259h-1.814l-1.6,1.407h1.815l-13.075,11.476h-1.814l-1.6,1.407H401.9l1.6-1.407h0l10.456-9.178,32.122.11-10.258,9H435.8l-1.6,1.408h.019l-.074.065h75.724l25.645-7.276,3.186-2.732h19.744l37.632-33.031h-.094Z" transform="translate(-28.996 -328.936)" fill="#d5d7d9"/>
    <path id="Path_6058" data-name="Path 6058" d="M595.966,1415.3h-5.027l-.833.732H564.9l1.095-.961h-5.027l-1.095.961H525.845l1.1-.961h-5.028l-2.824,2.48h1.133l-1.53,1.343H478.66l-3.527,3.077h-1.215l-2.825,2.479h1.2l-10.216,8.915h-1.14l-.785.689H429.588l10.9-9.6,2.832-2.479h-1.176l3.576-3.077H344.362l-3.506,3.077H339.02l-2.825,2.479h1.837l-10.157,8.915h-1.133l-2.825,2.479h1.133l-10.467,9.187H312.77l-2.824,2.479h1.814l-11.854,10.4h-1.815l-2.824,2.479H399.525l12.073-10.584,30.5.1-10.817,9.478-1.05.938h0l-.074.065h77.217l25.83-7.328,3.125-2.679h19.747l38.853-34.1h-.094Zm-95.754,42.55-1.142,1H436.925l1.141-1H435.82l9.393-8.245,10.534-.017,8.637-7.57H527.64l18.875-16.568a11.967,11.967,0,0,0,5.906-1.7.877.877,0,0,0,.335-.174.592.592,0,0,0,.206-.427l.534-.418h-.7a.585.585,0,0,0-.074-.063l5.81-5.1h29.816l-.235.206h2.359l-17.551,15.405h-2.36l-2.824,2.48h2.36l-13.8,12.114h-2.359l-1.216,1.066H535.353l-3.569,3.059-24.491,6.948h-3.2l1.142-1Zm-169.575-24.486,10.157-8.915h.429l.695-.61h17.1l-.695.61h7.487l-9.677,8.495h2.079l9.677-8.495h69.844l-6.532,5.757h-2.289l-1.069.938h-2.922l-3.907,1.865,2.611.524,1.776-.848h2.986l-1.532,1.35h-1.432l-8.7,7.64h2.76l.656-.576h6.36l-.4.348h2.76l2.3-2.014h14.785l-3.36,2.949h2.761l.282-.248h5.944l-5.109,4.484h2.307l5.347-4.693h.227l6.928-6.081h1.874l1.339-1.175h6.213L455.1,1448.333h-6.188l1.369-1.2h-5.027l-1.423,1.249-30.361-.1,1.3-1.145h-5.027l-1.277,1.12h-9.652l7.219-6.336h7.389l1.756-1.542h-6.13l12.244-5.652-2.569-.564-13.467,6.217h-.227l-.248.218-1.482.654.6.12L387.7,1455.592h14.555l-2.651,2.327h-2.265l-1.069.938H362.411l1.069-.938h-5.027l-1.069.938H323.355l1.069-.938h-1.133l11.854-10.4H336.2l2.824-2.479H334l-.534.469h-16.2l.534-.469h-.451l10.467-9.187h1.133l2.825-2.479Zm12.981-11.394,1.749-1.535h95.779l-1.785,1.535h-1.071l-1.068.938H402.159l1.068-.938H398.2l-1.068.938H365.1l1.069-.938h-5.027l-.694.61h-17.1l.695-.61Zm86.87,15.922h-.342l-.453.4h-6.36l3.07-2.694h6.7Zm4.913,0,2.616-2.3h9.8l-2.617,2.3Zm14.712,0,2.617-2.3h5.665l-.283.248h.393l-2.787,2.446H450l.453-.4Zm27.787-15.922,1.76-1.535h16.074l-2.818,2.474H477.876l1.069-.938Zm71.97.348,5.324-4.674h1.18l-5.325,4.674Zm-10.526,1.49-.55.483c-1.237-.044-1.651-.347-1.685-.407a.227.227,0,0,1,.035-.076Zm10.159,0a12.8,12.8,0,0,1-1.634.355l.4-.355Zm-3.147-.23h.329l-.872.765H545.7l-.784.688h-4.942l.784-.688h-.171l.682-.6a.835.835,0,0,0,.3-.163.613.613,0,0,0,.111-.128h.762l6.7-5.879H553.2Zm-10.468-.125a1.1,1.1,0,0,0-.027.857,2.084,2.084,0,0,0,1.681,1.03l-1.083.951h7.021L527,1440.763H465.822l8.387-7.351h-8.293l.05-.044h-1.124l10.215-8.914h41.2l1.136-1Zm-12.932-5.879h24.1l-5.263,4.62h-22.97l.254-.223h-1.133Zm-7.77,4.4h-1.133l-1.069.938h-17.99l2.818-2.474h19.123ZM408.86,1449.794l-3.291,2.889H393.775l3.291-2.889Zm-106.193,8.125,11.854-10.4h.451l.534-.469h16.2l-.534.469h1.21l-11.854,10.4H319.4l-1.069.938H302.05l1.069-.938Z" transform="translate(-26.436 -327.971)" fill="#474645"/>
    <path id="Path_6061" data-name="Path 6061" d="M309.81,1592.3l-51.688,45.369H369.246l12.009-10.541h9.669l-2.545,2.233h1.136l.148-.13a16.661,16.661,0,0,0,7.738-1.89c-.7,1.07.662,1.879,3.383,1.89l-.073.064h1.136l2.088-1.833h9.185l-10.275,9.019h-.019l-1.6,1.408h.019l-.054.047h70.967l6.7-5.88,14.057-4.128h35.963l40.591-35.629Z" transform="translate(-2.56 -441.888)" fill="#89c6e1"/>
    <path id="Path_6062" data-name="Path 6062" d="M307.048,1590.8l-52.909,46.441H366.887L378.9,1626.7h8.044l-2.544,2.233h2.76l.15-.131a18.551,18.551,0,0,0,6.889-1.481,1.285,1.285,0,0,0,.081.184c.345.638,1.255,1.058,2.613,1.221l-.16.14h2.759l2.088-1.833h7.56l-10.829,9.488-1.05.938h.006l-.054.048H469.8l6.761-5.935,13.87-4.073h36.088l41.812-36.7Zm88.409,36.118c-.046-.123.106-.362.386-.608l1.069-.938h-.779l.449-.693-1.128.693h-.394l-.151.133c-1.089.956-3.694,1.79-6.181,2.05l2.73-2.4H383.92a.714.714,0,0,0,.1-.073.594.594,0,0,0,.193-.327,1.191,1.191,0,0,0,.255-1.149,1.54,1.54,0,0,0-1.031-.9l5.107-4.483h4.973l-.4.348h2.76l2.3-2.015h14.785l-3.359,2.949h2.761l.282-.248h5.344l-7.113,6.227h-10.3l-2.442,2.143C396.369,1627.6,395.555,1627.187,395.457,1626.922Zm-16.712-1.793.036.033h-.889l-.25.22H363.285l.074-.065h4.031a1.091,1.091,0,0,0,.687-.227.6.6,0,0,0,.191-.309,1.324,1.324,0,0,0,.324-1.356c-.206-.554-.812-.941-1.775-1.144l3.686-3.235H384.86l-5.191,4.559h0l-.588.516a.836.836,0,0,0-.3.163.589.589,0,0,0-.206.479l-.416.365Zm-2.86,1.8-3.291,2.889H360.8l3.292-2.889Zm41.253-11.9,2.354-2.066h5.668l-.02.018h.017l-2.787,2.446h-5.344l.453-.4Zm-14.712,0,2.354-2.066h9.8l-2.354,2.066Zm-10.679.4,2.807-2.464h5.313l-2.354,2.066h-.341l-.453.4Zm-27.406,8.633.876-.769c1.443.043,2.049.389,2.117.557.011.028-.01.1-.092.212Zm17.18-.452h.288c1.032.076,1.365.337,1.394.383a.208.208,0,0,1-.031.069h-2.165Zm-80.986.051L286.81,1635.7H268.947l13.724-12.046Zm4.517-1.542H284.428l10.41-9.137h1.133l.939-.824h13.542l12.737-11.18h2.851l-.695.61H361.49L322.62,1635.7H289.571Zm20.329,13.588,38.87-34.118h40.5l-18.137,15.92H369.5l-6.532,5.733h.455l-1.008.885a.916.916,0,0,0-.2.088h-.359l-3.092,2.714h2.562l-6.606,5.8h14.555l-3.4,2.98ZM475.1,1630.43l-5.19,4.555h-2.679l-1.122.985H403.97l1.122-.985h-2.247l9.393-8.245h2.247l2.825-2.479h-2.247l12.855-11.283h2.247l2.825-2.479h-2.248l10.156-8.915h42.231l2.824-2.48h-.988l.03-.026h-2.753l-.03.026h-1.133l-1.069.938H444.9l1.068-.938h-5.027l-14.028,12.314h-30.6l14.032-12.314h-5.027l-1.069.938H369.184l1.068-.938h-5.027l-1.069.939c-5.883,0-12.445,0-18.925,0-4.492,0-8.945,0-13.1,0l1.068-.938h-5.027l-.695.61h-4.93l-12.737,11.18H298.345l.45-.395h-5.028l-2.825,2.479h1.134l-25.89,22.725h-7.53l49.4-43.357c27.653.005,85.4,0,140.6,0,46.884,0,91.934,0,115.157,0l-38.3,33.617H490.317l-15.1,4.434Z" transform="translate(0 -440.924)" fill="#474645"/>
  </g>
</svg>
